<?xml version="1.0" encoding="UTF-8" standalone="no"?>
<svg
   width="801.22821pt"
   height="429.56665pt"
   viewBox="0 0 801.22821 429.56665"
   version="1.1"
   id="svg63"
   xmlns="http://www.w3.org/2000/svg"
   xmlns:svg="http://www.w3.org/2000/svg">
  <defs
     id="defs63" />
  <g
     id="surface570"
     transform="translate(-99.386249,-68.307275)">
    <path
       style="fill:#000000;fill-opacity:1;fill-rule:nonzero;stroke:#000000;stroke-width:2;stroke-linecap:round;stroke-linejoin:round;stroke-miterlimit:10;stroke-opacity:1"
       d="m -118.74479,91.759966 c 16.01889,-22.305663 29.666723,-27.855063 40.797306,-24.581362 6.865237,2.803305 11.009806,13.577913 12.878676,18.656917 1.080639,2.943152 1.506538,4.545041 2.072285,6.286777 0.495822,0.877224 0.05721,1.195059 -1.334908,0.947148 -6.820739,-1.474755 -17.951322,-5.562113 -27.282959,-9.954593 -7.659824,-3.60425 -17.38558,-10.056301 -24.13639,-16.18416 -2.44733,-2.097712 -5.98166,6.884307 -11.55013,16.330364 -5.90537,9.522337 -13.87668,16.705409 -20.19524,20.265163 l -5.21249,29.54594 c 6.31856,-3.55975 14.28986,-10.74282 19.17181,-20.46857 5.1235,-9.72575 7.79967,-19.101888 8.61968,-17.976752 6.48384,6.909732 18.77134,14.086452 28.096622,18.033962 10.831818,4.92008 29.20904,9.56048 37.084992,9.95459 3.616963,0.18434 10.450416,-16.80076 13.323645,-26.348524 2.154921,-8.664183 1.004359,-22.992186 -4.869233,-36.754443 -4.576824,-10.736468 -12.897746,-20.786412 -21.453865,-21.879764 -11.492915,-1.468398 -23.068467,5.905375 -41.668171,32.895926 z m 0,0"
       transform="matrix(0.614509,0,0,0.614509,916.82912,176.63611)"
       id="path1" />
    <path
       style="fill:#000000;fill-opacity:1;fill-rule:nonzero;stroke:#000000;stroke-width:2;stroke-linecap:round;stroke-linejoin:round;stroke-miterlimit:10;stroke-opacity:1"
       d="m -147.49615,103.52622 c -18.38993,10.37413 -44.57954,10.59026 -64.24081,2.89865 l -5.2125,29.54595 c 19.66128,7.69161 45.85088,7.47548 64.24082,-2.89866 z m 0,0"
       transform="matrix(0.614509,0,0,0.614509,916.82912,176.63611)"
       id="path2" />
    <path
       style="fill:#000000;fill-opacity:1;fill-rule:nonzero;stroke:#000000;stroke-width:2;stroke-linecap:round;stroke-linejoin:round;stroke-miterlimit:10;stroke-opacity:1"
       d="m -211.73696,106.42487 c -8.96295,-3.50889 -20.23974,-8.823096 -26.92699,-16.381214 -6.70632,-7.437339 -10.45677,-12.109514 -10.57119,-17.716124 -0.20977,-9.821103 22.12132,-25.948053 26.83799,-25.617504 4.45605,0.317835 7.86324,9.299853 10.25336,14.328003 2.26298,4.761169 4.48783,13.62241 4.28441,15.58663 -0.23519,2.326553 -6.05793,7.132218 -11.94424,11.69633 -10.50127,7.392843 -22.07046,13.851249 -29.25353,17.169449 l -5.2125,29.54594 c 7.18307,-3.32455 18.75227,-9.7766 29.2599,-17.1758 13.1393,-8.83581 24.17453,-25.789136 27.53087,-40.384121 1.16963,-5.091717 1.77987,-11.365781 1.97057,-17.639844 -0.3369,-21.352158 -11.62005,-45.463124 -24.40337,-43.022151 -15.17345,3.286414 -39.72938,34.694873 -38.97293,60.782772 1.0425,22.515434 5.91173,33.226474 15.00817,41.986014 8.06665,7.77424 17.96403,12.87867 26.92698,16.38757 z m 0,0"
       transform="matrix(0.614509,0,0,0.614509,916.82912,176.63611)"
       id="path3" />
    <path
       style="fill:#000000;fill-opacity:1;fill-rule:nonzero;stroke:#000000;stroke-width:2.5;stroke-linecap:round;stroke-linejoin:round;stroke-miterlimit:10;stroke-opacity:1"
       d="m -254.96253,-50.204232 c 7.46913,3.75681 19.40701,11.295857 27.02869,15.745548 l -14.44242,25.865415 c -7.62169,-4.44969 -17.79241,-10.666544 -25.26153,-14.416997 z m 0,0"
       transform="matrix(0.614509,0,0,0.614509,916.82912,176.63611)"
       id="path4" />
    <path
       style="fill:#000000;fill-opacity:1;fill-rule:nonzero;stroke:#000000;stroke-width:2.5;stroke-linecap:round;stroke-linejoin:round;stroke-miterlimit:10;stroke-opacity:1"
       d="m -212.77311,-58.118324 c 7.46913,3.75681 18.37723,10.698327 25.99891,15.154374 l -12.97403,27.187609 c -7.62168,-4.44969 -20.15074,-12.42735 -27.6135,-16.18416 z m 0,0"
       transform="matrix(0.614509,0,0,0.614509,916.82912,176.63611)"
       id="path5" />
    <path
       style="fill:#000000;fill-opacity:1;fill-rule:nonzero;stroke:#000000;stroke-width:2;stroke-linecap:round;stroke-linejoin:round;stroke-miterlimit:10;stroke-opacity:1"
       d="m -249.05715,105.49044 c -17.79877,8.23828 -45.43134,16.2668 -59.6195,2.72067 l -5.20614,29.54594 c 14.1818,13.53977 41.81438,5.51762 59.61314,-2.72067 z m 0,0"
       transform="matrix(0.614509,0,0,0.614509,916.82912,176.63611)"
       id="path6" />
    <path
       style="fill:#000000;fill-opacity:1;fill-rule:nonzero;stroke:#000000;stroke-width:2;stroke-linecap:round;stroke-linejoin:round;stroke-miterlimit:10;stroke-opacity:1"
       d="m -308.67665,108.21111 c -1.88794,-1.79895 -5.3587,-6.37577 -7.5899,-10.831821 -1.83709,-3.667816 -3.07029,-7.202142 -3.32456,-11.81075 -0.68652,-5.562113 2.48548,-14.97003 -5.96258,-7.793315 -3.62968,3.083 -6.49019,7.081365 -9.99273,10.984379 -3.85217,4.595895 -9.17272,10.316925 -13.30458,13.666907 l -5.21249,29.54594 c 4.13821,-3.34998 9.45877,-9.07101 13.30457,-13.6669 3.50254,-3.90302 7.90774,-9.45242 9.99909,-12.19851 2.58718,-3.40084 4.08736,2.25663 5.11079,7.7806 0.94715,5.10443 2.39012,9.47784 4.17635,13.03759 2.2312,4.45605 5.70196,9.03288 7.5899,10.83182 z m 0,0"
       transform="matrix(0.614509,0,0,0.614509,916.82912,176.63611)"
       id="path7" />
    <path
       style="fill:#000000;fill-opacity:1;fill-rule:nonzero;stroke:#000000;stroke-width:2.5;stroke-linecap:round;stroke-linejoin:round;stroke-miterlimit:10;stroke-opacity:1"
       d="m -338.1781,167.32207 c 7.46913,3.75045 18.67599,9.22993 26.29132,13.67962 l -12.67526,27.19396 c -7.62169,-4.45604 -18.82855,-9.92916 -26.29132,-13.68597 z m 0,0"
       transform="matrix(0.614509,0,0,0.614509,916.82912,176.63611)"
       id="path8" />
    <path
       style="fill:#000000;fill-opacity:1;fill-rule:nonzero;stroke:#000000;stroke-width:2;stroke-linecap:round;stroke-linejoin:round;stroke-miterlimit:10;stroke-opacity:1"
       d="m -348.851,102.42651 c -12.96767,10.48856 -38.38811,12.30022 -50.59298,0.93444 l -5.20614,29.54594 c 12.19851,11.36578 37.62531,9.55412 50.58663,-0.93444 z m 0,0"
       transform="matrix(0.614509,0,0,0.614509,916.82912,176.63611)"
       id="path9" />
    <path
       style="fill:#000000;fill-opacity:1;fill-rule:nonzero;stroke:#000000;stroke-width:2;stroke-linecap:round;stroke-linejoin:round;stroke-miterlimit:10;stroke-opacity:1"
       d="m -399.44398,103.36095 c -5.6956,-5.307851 -9.35706,-11.047951 -17.91318,-20.900837 l -5.6384,30.321467 c 7.24664,9.80838 12.64984,14.81746 18.34544,20.12531 z m 0,0"
       transform="matrix(0.614509,0,0,0.614509,916.82912,176.63611)"
       id="path10" />
    <path
       style="fill:#000000;fill-opacity:1;fill-rule:nonzero;stroke:#000000;stroke-width:2;stroke-linecap:round;stroke-linejoin:round;stroke-miterlimit:10;stroke-opacity:1"
       d="m -417.35716,82.460113 c 9.68125,15.186158 20.85633,41.140567 24.64493,58.392647 6.25499,17.86233 -5.00908,51.56556 -4.20814,40.24428 l 0.29241,-3.00672 c -0.39412,-4.64039 -1.55104,-8.27007 -2.61896,-14.36615 -4.30984,-16.73719 -13.63512,-36.53195 -23.74864,-50.94259 z m 0,0"
       transform="matrix(0.614509,0,0,0.614509,916.82912,176.63611)"
       id="path11" />
    <path
       style="fill:#000000;fill-opacity:1;fill-rule:nonzero;stroke:#000000;stroke-width:2;stroke-linecap:round;stroke-linejoin:round;stroke-miterlimit:10;stroke-opacity:1"
       d="m -391.44725,157.31662 c 0.24155,-3.77588 -2.28841,0.70559 -4.57047,3.43897 -2.87323,5.11715 -6.04522,9.18544 -14.11823,17.17581 -29.09462,28.57973 -102.33017,71.64637 -124.24807,80.69832 -15.31965,7.13221 -48.78132,21.73356 -78.78495,31.39574 l -4.41155,1.67817 c -14.76026,4.64675 64.71121,0.22248 86.14601,-5.64475 19.40065,-7.04958 90.53849,-49.69033 118.87666,-78.23827 10.20886,-10.28514 14.28986,-16.66092 17.79876,-28.40174 2.52361,-8.46077 2.65074,-13.3745 3.21013,-20.46222 z m 0,0"
       transform="matrix(0.614509,0,0,0.614509,916.82912,176.63611)"
       id="path12" />
    <path
       style="fill:#000000;fill-opacity:1;fill-rule:nonzero;stroke:#000000;stroke-width:2;stroke-linecap:round;stroke-linejoin:round;stroke-miterlimit:10;stroke-opacity:1"
       d="m -455.32574,-5.313211 c 1.2777,-9.579548 -2.98129,6.738103 -15.72647,26.208677 -11.79804,20.214308 -31.32582,45.736462 -47.70704,71.150551 -12.85325,19.940973 -15.34508,48.628763 -8.59426,67.292033 4.48783,17.34744 44.57954,0.83273 55.2588,-15.77733 12.91046,-20.83091 12.02688,-48.698684 5.13621,-61.50108 -8.73411,-16.228657 -48.0948,-50.059018 -60.03268,-69.16726 -2.4664,-5.612967 -4.42426,-6.547402 -7.72975,-8.912095 l -5.20614,29.545945 c 3.30549,2.358336 5.257,3.299128 9.54777,7.062295 15.326,21.409368 49.4742,54.788403 53.73319,61.710845 5.48583,6.83981 7.18943,7.98402 4.5514,11.25772 -10.67926,16.61006 -49.3725,32.04413 -51.72448,17.50636 -0.59753,-4.75482 4.9328,-13.72412 15.12895,-30.61387 8.39085,-13.895752 22.29931,-33.372683 33.60788,-52.709767 10.18979,-17.423717 17.01053,-31.847071 18.95568,-47.6498286 z m 0,0"
       transform="matrix(0.614509,0,0,0.614509,916.82912,176.63611)"
       id="path13" />
    <path
       style="fill:#000000;fill-opacity:1;fill-rule:nonzero;stroke:#000000;stroke-width:2;stroke-linecap:round;stroke-linejoin:round;stroke-miterlimit:10;stroke-opacity:1"
       d="m -534.72093,3.980285 c 14.6522,11.13694 23.39902,18.55521 32.36832,23.710494 l 2.59354,1.678169 c 5.08536,2.936796 -31.11605,4.246276 -40.168,4.157282 z m 0,0"
       transform="matrix(0.614509,0,0,0.614509,916.82912,176.63611)"
       id="path14" />
    <path
       style="fill:#000000;fill-opacity:1;fill-rule:nonzero;stroke:#000000;stroke-width:2.5;stroke-linecap:round;stroke-linejoin:round;stroke-miterlimit:10;stroke-opacity:1"
       d="m -525.27487,-74.976294 c 7.46912,3.750453 19.40701,11.2895 27.02869,15.739191 l -14.44242,25.865415 c -7.62169,-4.449691 -17.79241,-10.660187 -25.26153,-14.416997 z m 0,0"
       transform="matrix(0.614509,0,0,0.614509,916.82912,176.63611)"
       id="path15" />
    <path
       style="fill:#000000;fill-opacity:1;fill-rule:nonzero;stroke:#000000;stroke-width:2.5;stroke-linecap:round;stroke-linejoin:round;stroke-miterlimit:10;stroke-opacity:1"
       d="m -483.08545,-82.896744 c 7.46912,3.756811 18.37722,10.704684 25.99891,15.154375 l -12.97403,27.187609 c -7.62168,-4.449691 -20.15074,-12.42735 -27.61351,-16.18416 z m 0,0"
       transform="matrix(0.614509,0,0,0.614509,916.82912,176.63611)"
       id="path16" />
    <path
       style="fill:#000000;fill-opacity:1;fill-rule:nonzero;stroke:#000000;stroke-width:2;stroke-linecap:round;stroke-linejoin:round;stroke-miterlimit:10;stroke-opacity:1"
       d="m -685.67986,133.23744 c 16.01253,-22.30566 29.66672,-27.85507 40.79731,-24.58136 6.85888,2.8033 11.00345,13.57791 12.87232,18.65691 1.08699,2.94315 1.51289,4.54504 2.07228,6.28678 0.50218,0.88358 0.0572,1.19506 -1.32855,0.94715 -6.8271,-1.47476 -17.95768,-5.56212 -27.28932,-9.95459 -7.65982,-3.60425 -17.38557,-10.05631 -24.13003,-16.17781 -2.44733,-2.10407 -5.98801,6.87795 -11.55013,16.32401 -5.91173,9.52234 -13.88303,16.70541 -20.20159,20.26516 l -5.20614,29.54595 c 6.31221,-3.55976 14.28986,-10.74283 19.17181,-20.46858 5.1235,-9.72575 7.79967,-19.10189 8.61333,-17.97675 6.49019,6.90973 18.77769,14.08645 28.09662,18.03396 10.83182,4.92009 29.20904,9.56048 37.09135,9.95459 3.6106,0.18435 10.45041,-16.80076 13.31728,-26.34852 2.16128,-8.66418 1.00436,-22.99219 -4.86923,-36.75444 -4.57682,-10.736472 -12.89775,-20.786416 -21.45386,-21.879769 -11.49292,-1.468398 -23.06211,5.905375 -41.66182,32.895929 z m 0,0"
       transform="matrix(0.614509,0,0,0.614509,916.82912,176.63611)"
       id="path17" />
    <path
       style="fill:#000000;fill-opacity:1;fill-rule:nonzero;stroke:#000000;stroke-width:2;stroke-linecap:round;stroke-linejoin:round;stroke-miterlimit:10;stroke-opacity:1"
       d="m -714.43757,145.00369 c -11.61369,6.55376 -30.35325,5.22521 -39.99636,-3.97929 l -5.2125,29.53958 c 9.64312,9.21086 28.38903,10.53941 40.00272,3.98566 z m 0,0"
       transform="matrix(0.614509,0,0,0.614509,916.82912,176.63611)"
       id="path18" />
    <path
       style="fill:#000000;fill-opacity:1;fill-rule:nonzero;stroke:#000000;stroke-width:2;stroke-linecap:round;stroke-linejoin:round;stroke-miterlimit:10;stroke-opacity:1"
       d="m -754.43393,141.0244 c -1.88794,-1.80531 -5.3587,-6.37577 -7.5899,-10.83182 -1.83709,-3.66782 -3.07029,-7.20214 -3.33091,-11.81711 -0.68653,-5.55575 2.48547,-14.96367 -5.95623,-7.79331 -3.62968,3.083 -6.49655,7.08772 -9.99909,10.99073 -3.84581,4.5959 -9.16636,10.31693 -13.30458,13.66055 l -5.20614,29.54595 c 4.13186,-3.34998 9.45242,-9.07102 13.30458,-13.66691 3.50254,-3.90301 7.90138,-9.45241 9.99273,-12.19215 2.59354,-3.40719 4.09372,2.25027 5.11715,7.7806 0.94079,5.10443 2.39012,9.47148 4.16999,13.03124 2.2312,4.4624 5.70196,9.03287 7.5899,10.83181 z m 0,0"
       transform="matrix(0.614509,0,0,0.614509,916.82912,176.63611)"
       id="path19" />
    <path
       style="fill:#000000;fill-opacity:1;fill-rule:nonzero;stroke:#000000;stroke-width:2.5;stroke-linecap:round;stroke-linejoin:round;stroke-miterlimit:10;stroke-opacity:1"
       d="m -804.88071,203.72054 c 7.46277,3.75681 19.40701,11.2895 27.02234,15.73919 l -14.44243,25.87177 c -7.62168,-4.45605 -17.7924,-10.66655 -25.26153,-14.42336 z m 0,0"
       transform="matrix(0.614509,0,0,0.614509,916.82912,176.63611)"
       id="path20" />
    <path
       style="fill:#000000;fill-opacity:1;fill-rule:nonzero;stroke:#000000;stroke-width:2.5;stroke-linecap:round;stroke-linejoin:round;stroke-miterlimit:10;stroke-opacity:1"
       d="m -762.69764,195.80009 c 7.46912,3.75681 18.37722,10.70468 25.9989,15.15437 l -12.97402,27.18761 c -7.62169,-4.44969 -20.14439,-12.42099 -27.61351,-16.1778 z m 0,0"
       transform="matrix(0.614509,0,0,0.614509,916.82912,176.63611)"
       id="path21" />
    <path
       style="fill:#000000;fill-opacity:1;fill-rule:nonzero;stroke:#000000;stroke-width:2;stroke-linecap:round;stroke-linejoin:round;stroke-miterlimit:10;stroke-opacity:1"
       d="m -794.61464,135.23344 c -16.73083,12.88503 -46.88067,22.60443 -64.24717,10.59026 l -5.20614,29.54595 c 17.36651,12.00781 47.51634,2.28841 64.24717,-10.59026 z m 0,0"
       transform="matrix(0.614509,0,0,0.614509,916.82912,176.63611)"
       id="path22" />
    <path
       style="fill:#000000;fill-opacity:1;fill-rule:nonzero;stroke:#000000;stroke-width:2;stroke-linecap:round;stroke-linejoin:round;stroke-miterlimit:10;stroke-opacity:1"
       d="m -858.86181,145.8237 c -7.45005,-5.14892 -16.43843,-13.65419 -19.22266,-54.940959 -4.03651,-91.008884 -9.19179,-156.622749 -15.46586,-197.877741 -1.72266,-12.44642 -4.37341,-25.52215 -6.5474,-33.4871 l -11.4802,27.71522 c 2.17399,7.96495 4.82474,21.040679 6.5474,33.487099 5.07265,40.727382 10.23429,106.341247 14.74755,197.572611 2.78423,41.28678 18.75862,51.92154 26.21503,57.07682 z m 0,0"
       transform="matrix(0.614509,0,0,0.614509,916.82912,176.63611)"
       id="path23" />
    <path
       style="fill:#000000;fill-opacity:1;fill-rule:nonzero;stroke:#000000;stroke-width:2;stroke-linecap:round;stroke-linejoin:round;stroke-miterlimit:10;stroke-opacity:1"
       d="m -932.53597,23.412719 c 4.58954,4.653105 -34.53596,-3.349981 -37.4664,-4.322556 l 6.58554,-28.814924 c 4.43698,5.161641 16.38758,18.536139 28.4526,30.728291 z m 0,0"
       transform="matrix(0.614509,0,0,0.614509,916.82912,176.63611)"
       id="path24" />
    <path
       style="fill:#000000;fill-opacity:1;fill-rule:nonzero;stroke:#000000;stroke-width:2;stroke-linecap:round;stroke-linejoin:round;stroke-miterlimit:10;stroke-opacity:1"
       d="m -970.00237,19.090163 c 0.68653,0.209771 3.9348,1.805303 5.3142,2.320196 6.15965,23.729564 17.45551,42.952227 21.05975,51.158727 1.07429,3.426262 3.18471,7.411913 4.00473,9.541408 0.70559,1.385761 1.07428,1.88794 -0.4259,3.597893 -2.82238,2.510896 -7.15129,4.519614 -9.96731,5.829094 l -5.21249,29.545949 c 2.81601,-1.30948 7.46276,-4.10643 11.10515,-7.253 10.65383,-9.19179 13.59063,-23.252811 14.24537,-25.598433 1.32219,-4.748456 3.43897,-20.945329 -4.15728,-40.269699 -2.54904,-7.755175 -13.09481,-24.187247 -18.27552,-45.590258 -1.13149,-2.084998 -9.40792,-10.100797 -11.10516,-12.096801 z m 0,0"
       transform="matrix(0.614509,0,0,0.614509,916.82912,176.63611)"
       id="path25" />
    <path
       style="fill:#000000;fill-opacity:1;fill-rule:nonzero;stroke:#000000;stroke-width:2.5;stroke-linecap:round;stroke-linejoin:round;stroke-miterlimit:10;stroke-opacity:1"
       d="m -956.09391,150.64844 c 7.46913,3.75045 18.67599,9.22993 26.29132,13.67962 l -12.67526,27.18761 c -7.62169,-4.44969 -18.82855,-9.92281 -26.29132,-13.67962 z m 0,0"
       transform="matrix(0.614509,0,0,0.614509,916.82912,176.63611)"
       id="path26" />
    <path
       style="fill:#000000;fill-opacity:1;fill-rule:nonzero;stroke:#000000;stroke-width:2;stroke-linecap:round;stroke-linejoin:round;stroke-miterlimit:10;stroke-opacity:1"
       d="m -950.0169,91.537481 c -14.57591,6.769886 -37.11042,9.598619 -48.73683,-1.493825 l -5.20617,29.545944 c 11.62009,11.09244 34.15459,8.26371 48.73051,1.49383 z m 0,0"
       transform="matrix(0.614509,0,0,0.614509,916.82912,176.63611)"
       id="path27" />
    <path
       style="fill:#000000;fill-opacity:1;fill-rule:nonzero;stroke:#000000;stroke-width:2;stroke-linecap:round;stroke-linejoin:round;stroke-miterlimit:10;stroke-opacity:1"
       d="m -998.75373,90.043656 c -1.88797,-1.798946 -5.35237,-6.37577 -7.58987,-10.831818 -1.8371,-3.667816 -3.0703,-7.202141 -3.3246,-11.81075 -0.6865,-5.562113 2.4855,-14.97003 -5.9626,-7.793315 -3.6296,3.083 -6.4902,7.081365 -9.9927,10.984379 -3.8522,4.595895 -9.1727,10.316926 -13.3046,13.666907 l -5.2125,29.539591 c 4.1382,-3.34363 9.4588,-9.06466 13.3046,-13.66055 3.5025,-3.903017 7.9077,-9.452417 9.9991,-12.198511 2.5872,-3.400835 4.0874,2.256628 5.1108,7.780601 0.9471,5.10443 2.3901,9.47148 4.1763,13.03759 2.2312,4.45605 5.702,9.02652 7.5899,10.83182 z m 0,0"
       transform="matrix(0.614509,0,0,0.614509,916.82912,176.63611)"
       id="path28" />
    <path
       style="fill:#000000;fill-opacity:1;fill-rule:nonzero;stroke:#000000;stroke-width:2.5;stroke-linecap:round;stroke-linejoin:round;stroke-miterlimit:10;stroke-opacity:1"
       d="m -1049.2005,152.7398 c 7.4691,3.75681 19.407,11.29585 27.0287,15.74554 l -14.4424,25.86542 c -7.6217,-4.44969 -17.7988,-10.66655 -25.2616,-14.417 z m 0,0"
       transform="matrix(0.614509,0,0,0.614509,916.82912,176.63611)"
       id="path29" />
    <path
       style="fill:#000000;fill-opacity:1;fill-rule:nonzero;stroke:#000000;stroke-width:2.5;stroke-linecap:round;stroke-linejoin:round;stroke-miterlimit:10;stroke-opacity:1"
       d="m -1007.0111,144.8257 c 7.46279,3.75681 18.37724,10.69833 25.99893,15.15438 l -12.97403,27.18761 c -7.6217,-4.44969 -20.1507,-12.42735 -27.6199,-16.18416 z m 0,0"
       transform="matrix(0.614509,0,0,0.614509,916.82912,176.63611)"
       id="path30" />
    <path
       style="fill:#000000;fill-opacity:1;fill-rule:nonzero;stroke:#000000;stroke-width:2;stroke-linecap:round;stroke-linejoin:round;stroke-miterlimit:10;stroke-opacity:1"
       d="m -1038.9281,84.259059 c -13.9339,11.27043 -39.0174,13.997455 -54.4197,4.843806 l -5.2125,29.539585 c 15.6248,8.78496 40.4858,6.43298 54.4197,-4.8438 z m 0,0"
       transform="matrix(0.614509,0,0,0.614509,916.82912,176.63611)"
       id="path31" />
    <path
       style="fill:#000000;fill-opacity:1;fill-rule:nonzero;stroke:#000000;stroke-width:2;stroke-linecap:round;stroke-linejoin:round;stroke-miterlimit:10;stroke-opacity:1"
       d="m -1093.3478,89.102865 c -5.4668,-3.248274 -9.4143,-6.884307 -12.9613,-10.666544 -3.458,-3.992008 -6.3948,-7.106791 -12.2621,-16.463855 l -5.4922,31.141477 c 3.9412,8.225567 8.3909,10.742827 12.5418,14.868327 3.903,3.73774 7.1132,7.37377 12.9613,10.66018 z m 0,0"
       transform="matrix(0.614509,0,0,0.614509,916.82912,176.63611)"
       id="path32" />
    <path
       style="fill:#000000;fill-opacity:1;fill-rule:nonzero;stroke:#000000;stroke-width:2;stroke-linecap:round;stroke-linejoin:round;stroke-miterlimit:10;stroke-opacity:1"
       d="m -1118.5712,61.972466 c 21.4221,37.606242 28.7069,70.991634 27.1304,97.931334 -1.2904,11.07973 -1.9896,11.0543 -5.4286,20.94533 l -1.4875,3.21013 c -2.263,6.47112 -2.0341,-9.99273 -3.3118,-19.8774 -2.5872,-20.02997 -7.8188,-43.24464 -22.3947,-71.067917 z m 0,0"
       transform="matrix(0.614509,0,0,0.614509,916.82912,176.63611)"
       id="path33" />
    <path
       style="fill:#000000;fill-opacity:1;fill-rule:nonzero;stroke:#000000;stroke-width:2;stroke-linecap:round;stroke-linejoin:round;stroke-miterlimit:10;stroke-opacity:1"
       d="m -1096.6533,161.77267 c -0.9026,1.34762 -2.4664,3.11478 -5.7591,6.82074 -2.1995,2.07864 -6.6174,7.18943 -15.6439,14.52506 -37.9368,29.17725 -77.7488,49.41699 -121.6927,55.46857 -32.4827,3.22285 -47.5163,-4.71032 -56.5682,-11.9951 -14.4361,-10.32963 -27.9123,-38.32454 -22.3566,-70.23518 2.7144,-19.85834 7.8569,-32.57809 8.4417,-36.22684 l 0.5531,-3.15928 c 2.1676,-13.46349 -13.864,23.17653 -16.9089,38.68688 -10.0626,53.28187 10.4886,86.55284 28.6688,100.02904 12.421,9.42063 28.3,16.00618 58.1701,12.89775 41.3313,-6.166 82.7071,-26.30403 120.6439,-55.48764 23.3354,-17.95132 25.6429,-34.09734 27.391,-48.40628 0.4894,-9.62404 -0.032,-9.47784 -1.9642,-6.84616 z m 0,0"
       transform="matrix(0.614509,0,0,0.614509,916.82912,176.63611)"
       id="path34" />
    <path
       style="fill:#000000;fill-opacity:1;fill-rule:nonzero;stroke:#000000;stroke-width:2.5;stroke-linecap:round;stroke-linejoin:round;stroke-miterlimit:10;stroke-opacity:1"
       d="m -1217.0428,-8.466135 c 7.4691,3.75681 18.6696,9.236286 26.2913,13.685977 l -12.6753,27.187609 c -7.6217,-4.449691 -18.8285,-9.92281 -26.2913,-13.67962 z m 0,0"
       transform="matrix(0.614509,0,0,0.614509,916.82912,176.63611)"
       id="path35" />
    <path
       style="fill:#008000;fill-opacity:1;fill-rule:nonzero;stroke:#000000;stroke-width:2;stroke-linecap:round;stroke-linejoin:round;stroke-miterlimit:10;stroke-opacity:1"
       d="m -27.386286,-55.785415 c -22.655281,8.581546 -75.587524,28.846708 -102.139464,38.966575 -9.07737,3.477116 -12.47185,4.926444 -12.98039,6.693606 l -6.15964,16.915181 c 2.00236,-2.173992 3.90302,-3.216491 12.98674,-6.6936059 26.39302,-10.1389381 79.484186,-30.3850291 102.139468,-38.9665751 z m 0,0"
       transform="matrix(0.614509,0,0,0.614509,916.82912,176.63611)"
       id="path36" />
    <path
       style="fill:#008000;fill-opacity:1;fill-rule:nonzero;stroke:#000000;stroke-width:2;stroke-linecap:round;stroke-linejoin:round;stroke-miterlimit:10;stroke-opacity:1"
       d="m -232.57423,-136.27396 c 8.5879,-2.09771 18.99382,1.8498 17.46186,16.19687 -0.0318,0.20977 -0.0572,0.41319 -0.089,0.61025 l -1.49382,9.98002 c 0.10171,-0.75009 0.15256,-1.5129 0.13349,-2.2757 -1.01071,-12.25572 -13.86396,-13.90846 -21.99418,-11.85525 z m 0,0"
       transform="matrix(0.614509,0,0,0.614509,916.82912,176.63611)"
       id="path37" />
    <path
       style="fill:#008000;fill-opacity:1;fill-rule:nonzero;stroke:#000000;stroke-width:2;stroke-linecap:round;stroke-linejoin:round;stroke-miterlimit:10;stroke-opacity:1"
       d="m -215.20137,-119.46684 c -1.60188,9.78932 -11.04158,11.38485 -16.54013,9.60497 -4.85016,-1.5701 -7.10044,-5.25699 -6.61733,-9.84653 1.15057,-7.71703 6.3567,-15.74554 7.08773,-19.43879 1.25862,-6.39484 -0.15257,-7.5009 -0.56575,-9.26807 l -0.40683,-2.05957 c -0.59117,-2.77788 -0.20977,5.37777 -4.02379,13.53342 -1.70995,3.64239 -8.16836,15.27515 -8.00944,25.29331 0.0826,5.32056 1.57646,11.670902 6.66817,14.499633 9.24265,5.129858 19.62314,-2.936793 20.91355,-12.338353 z m 0,0"
       transform="matrix(0.614509,0,0,0.614509,916.82912,176.63611)"
       id="path38" />
    <path
       style="fill:#008000;fill-opacity:1;fill-rule:nonzero;stroke:#000000;stroke-width:2;stroke-linecap:round;stroke-linejoin:round;stroke-miterlimit:10;stroke-opacity:1"
       d="m -319.7246,-31.979571 c -22.64892,8.587903 -75.58752,28.846708 -102.13946,38.972932 -9.07737,3.477116 -12.47185,4.926443 -12.98039,6.68725 l -6.15964,16.91518 c 2.00236,-2.167635 3.90302,-3.210134 12.98674,-6.687249 26.39302,-10.145294 79.48419,-30.385029 102.13947,-38.972932 z m 0,0"
       transform="matrix(0.614509,0,0,0.614509,916.82912,176.63611)"
       id="path39" />
    <path
       style="fill:#008000;fill-opacity:1;fill-rule:nonzero;stroke:#000000;stroke-width:2;stroke-linecap:round;stroke-linejoin:round;stroke-miterlimit:10;stroke-opacity:1"
       d="m -492.6205,-127.06946 c -3.8903,-2.47911 -7.45005,-5.02815 -12.72611,-8.61333 -7.78061,-5.11078 -19.41973,-11.38485 -12.68798,-25.74463 3.86488,-8.24464 22.09589,-20.43044 27.88049,-9.54777 3.29277,8.21286 1.34762,18.75227 -7.01144,33.23283 -3.55975,6.15965 -9.80203,13.48892 -14.07374,18.23102 -17.76062,19.724843 -25.48401,23.608787 -36.37939,30.149832 -6.29949,3.381765 -27.10498,15.039954 -35.91536,18.879401 l -4.8311,2.110425 c -9.28078,4.061931 9.94824,-7.507264 15.2243,-11.372138 18.82219,-12.637121 35.80094,-23.39266 61.48201,-47.75789 4.44969,-4.21449 9.34435,-10.67926 12.24301,-15.80276 2.92408,-7.5899 2.8478,-13.84489 -0.16528,-17.52542 -2.1422,-2.62532 -8.70232,-1.87523 -11.72811,1.91972 0.69288,3.35634 5.1235,6.56647 12.96131,11.10516 3.6996,1.96422 8.20015,5.08536 12.51635,8.49255 z m 0,0"
       transform="matrix(0.614509,0,0,0.614509,916.82912,176.63611)"
       id="path40" />
    <path
       style="fill:#000000;fill-opacity:1;fill-rule:nonzero;stroke:#000000;stroke-width:2;stroke-linecap:round;stroke-linejoin:round;stroke-miterlimit:10;stroke-opacity:1"
       d="m -583.53403,-70.482107 c -0.30512,0.133491 -0.60389,0.260625 -0.87723,0.375045 l -3.63603,1.595532 c -0.10806,0.05085 -0.21613,0.09535 -0.31784,0.139848 z m 0,0"
       transform="matrix(0.614509,0,0,0.614509,916.82912,176.63611)"
       id="path41" />
    <path
       style="fill:#008000;fill-opacity:1;fill-rule:nonzero;stroke:#000000;stroke-width:2;stroke-linecap:round;stroke-linejoin:round;stroke-miterlimit:10;stroke-opacity:1"
       d="m -611.69422,206.58105 c -23.49436,8.75318 -47.21757,17.29658 -70.80093,25.88449 l -1.73538,9.84653 c 23.58336,-8.58791 47.30657,-17.13131 70.80093,-25.88449 z m 0,0"
       transform="matrix(0.614509,0,0,0.614509,916.82912,176.63611)"
       id="path42" />
    <path
       style="fill:#008000;fill-opacity:1;fill-rule:nonzero;stroke:#000000;stroke-width:2;stroke-linecap:round;stroke-linejoin:round;stroke-miterlimit:10;stroke-opacity:1"
       d="m -716.76412,-24.319746 c -22.64893,8.581546 -75.58753,28.846708 -102.13311,38.966575 -9.08373,3.477115 -12.47821,4.926443 -12.98674,6.693606 l -6.15329,16.908824 c 2.00236,-2.167635 3.90301,-3.210134 12.98038,-6.687249 26.39302,-10.145295 79.48419,-30.38503 102.13947,-38.966576 z m 0,0"
       transform="matrix(0.614509,0,0,0.614509,916.82912,176.63611)"
       id="path43" />
    <path
       style="fill:#008000;fill-opacity:1;fill-rule:nonzero;stroke:#000000;stroke-width:2;stroke-linecap:round;stroke-linejoin:round;stroke-miterlimit:10;stroke-opacity:1"
       d="m -904.25501,211.59649 c -23.49437,8.75317 -47.21757,17.29658 -70.80093,25.88448 l -1.73538,9.84653 c 23.58336,-8.5879 47.30656,-17.12495 70.79457,-25.88448 z m 0,0"
       transform="matrix(0.614509,0,0,0.614509,916.82912,176.63611)"
       id="path44" />
    <path
       style="fill:#008000;fill-opacity:1;fill-rule:nonzero;stroke:#000000;stroke-width:2.5;stroke-linecap:round;stroke-linejoin:round;stroke-miterlimit:10;stroke-opacity:1"
       d="m -1246.0103,-109.90636 c 18.0467,-3.08301 42.7933,0.36233 48.4571,5.05357 l -12.3002,21.835269 c -6.63,-4.112785 -28.8467,-7.284779 -50.4341,-3.019433 z m 0,0"
       transform="matrix(0.614509,0,0,0.614509,916.82912,176.63611)"
       id="path45" />
    <path
       style="fill:#008000;fill-opacity:1;fill-rule:nonzero;stroke:#000000;stroke-width:2.5;stroke-linecap:round;stroke-linejoin:round;stroke-miterlimit:10;stroke-opacity:1"
       d="m -1197.5532,-104.85279 c -6.0452,11.124228 -14.1818,18.567925 -28.2364,25.242461 -7.1895,3.413548 -13.3873,6.413911 -22.5155,9.859243 -6.8525,3.095713 -8.3781,4.398836 -12.3955,5.860878 l -2.7016,0.921721 c -4.3735,1.557392 5.81,0.228841 14.6966,-0.591173 9.408,-0.864511 20.4305,-2.129495 23.3673,-3.216491 5.2443,-2.50454 12.4845,-11.238646 15.4849,-16.24137 z m 0,0"
       transform="matrix(0.614509,0,0,0.614509,916.82912,176.63611)"
       id="path46" />
    <path
       style="fill:#000000;fill-opacity:1;fill-rule:nonzero;stroke:#000000;stroke-width:0.636427;stroke-linecap:round;stroke-linejoin:round;stroke-miterlimit:10;stroke-opacity:1"
       d="m 614.42736,473.12452 c 5.09744,-7.09595 9.44035,-8.86184 12.98225,-7.82011 2.18259,0.89003 3.50145,4.32067 4.09615,5.93487 0.34589,0.93856 0.48142,1.44831 0.65942,2.00255 0.15981,0.27915 0.0181,0.38028 -0.42275,0.30139 -2.17248,-0.46928 -5.71437,-1.77196 -8.6818,-3.16768 -2.43747,-1.14692 -5.53435,-3.20005 -7.68053,-5.15002 -0.77878,-0.66751 -1.90345,2.19068 -3.6754,5.19654 -1.87918,3.03014 -4.41777,5.31589 -6.4264,6.44866 l -1.65869,9.4019 c 2.01066,-1.13276 4.54724,-3.42053 6.10073,-6.51337 1.63036,-3.09486 2.48196,-6.07847 2.7429,-5.72045 2.06325,2.19878 5.97329,4.48251 8.9387,5.73866 3.44682,1.56564 9.29673,3.04227 11.80296,3.16769 1.14893,0.0566 3.32547,-5.34623 4.23774,-8.38447 0.68774,-2.75706 0.31959,-7.31641 -1.54743,-11.69575 -1.45843,-3.41852 -4.10424,-6.61654 -6.82893,-6.96243 -3.6572,-0.46726 -7.33867,1.87917 -13.25736,10.46793 z m 0,0"
       id="path47" />
    <path
       style="fill:#000000;fill-opacity:1;fill-rule:nonzero;stroke:#000000;stroke-width:0.636427;stroke-linecap:round;stroke-linejoin:round;stroke-miterlimit:10;stroke-opacity:1"
       d="m 605.2783,476.87072 c -3.69563,2.08549 -9.29672,1.88118 -12.7294,-0.61089 l -1.65868,9.39989 c 3.43468,2.4941 9.03376,2.69638 12.72939,0.6129 z m 0,0"
       id="path48" />
    <path
       style="fill:#000000;fill-opacity:1;fill-rule:nonzero;stroke:#000000;stroke-width:0.636427;stroke-linecap:round;stroke-linejoin:round;stroke-miterlimit:10;stroke-opacity:1"
       d="m 592.5489,476.25983 c -0.65741,-0.47738 -1.93985,-1.66273 -3.05642,-3.70978 -1.00736,-2.17046 1.30873,-5.18644 -0.45514,-4.22764 -1.98435,1.20357 -4.98415,12.02547 -13.74888,11.96681 -4.49867,0.0808 -5.78519,-4.09412 -5.26331,-6.7824 0.65945,-3.37806 1.8448,-4.11638 0.93251,-4.31461 -4.16086,0.22858 -6.71969,13.78732 -17.37775,13.41715 -3.24254,-0.0263 -7.88483,-1.35122 -9.25628,-5.86608 -0.80305,-4.48655 2.73886,-7.99811 -0.4349,-6.41224 -0.82732,0.41266 -1.96009,1.4827 -2.68221,2.1482 -2.4415,2.30193 -4.58971,5.16418 -6.94423,6.657 l -1.6587,9.39988 c 2.19069,-1.52316 4.34091,-4.38337 5.75686,-6.20186 0.83339,-0.96892 1.55147,-1.6607 2.07335,-1.71533 1.2764,-0.0243 0.49558,1.84883 1.88929,5.52222 1.7133,4.5189 6.14726,5.94698 9.60014,5.87012 9.04389,-0.20632 12.92967,-8.44917 13.9087,-9.97437 0.7201,-1.12465 0.83339,1.34922 1.25413,2.57502 1.15096,3.61067 3.94443,5.15001 6.54574,5.07921 5.68402,-0.15575 9.12681,-3.79272 11.67957,-9.02163 1.35729,-2.78133 1.57777,-0.45309 2.52241,1.28043 1.11658,2.04707 2.39902,3.23444 3.05644,3.70979 z m 0,0"
       id="path49" />
    <path
       style="fill:#000000;fill-opacity:1;fill-rule:nonzero;stroke:#000000;stroke-width:0.636427;stroke-linecap:round;stroke-linejoin:round;stroke-miterlimit:10;stroke-opacity:1"
       d="m 534.26229,479.13624 c -5.88631,3.73203 -14.72993,5.01449 -21.22107,2.47386 l -1.65666,9.40191 c 6.49112,2.5386 15.49658,1.50496 21.21903,-2.47589 z m 0,0"
       id="path50" />
    <path
       style="fill:#000000;fill-opacity:1;fill-rule:nonzero;stroke:#000000;stroke-width:0.636427;stroke-linecap:round;stroke-linejoin:round;stroke-miterlimit:10;stroke-opacity:1"
       d="m 513.04122,481.6101 c -2.85212,-1.11456 -6.44056,-2.80763 -8.56853,-5.21272 -2.132,-2.36666 -3.32545,-3.85342 -3.36389,-5.6375 -0.0668,-3.12521 7.0393,-8.25703 8.54224,-8.15184 1.41595,0.10119 2.50218,2.95933 3.26275,4.55936 0.72011,1.51508 1.42809,4.33483 1.36335,4.95987 -0.0768,0.74237 -1.92771,2.26957 -3.8008,3.72193 -3.34368,2.35453 -7.02515,4.40766 -9.3109,5.46557 l -1.65666,9.39991 c 2.28574,-1.05793 5.96722,-3.11107 9.30886,-5.46559 4.18111,-2.81167 7.69469,-8.20644 8.76271,-12.85076 0.3722,-1.62025 0.56639,-3.61675 0.62505,-5.61324 -0.10518,-6.79453 -3.69564,-14.46697 -7.76347,-13.69022 -4.83041,1.04578 -12.64444,11.04037 -12.40371,19.34189 0.33375,7.16471 1.88118,10.57311 4.77579,13.36051 2.56895,2.47388 5.71842,4.09817 8.57055,5.21474 z m 0,0"
       id="path51" />
    <path
       style="fill:#000000;fill-opacity:1;fill-rule:nonzero;stroke:#000000;stroke-width:0.795533;stroke-linecap:round;stroke-linejoin:round;stroke-miterlimit:10;stroke-opacity:1"
       d="m 499.28829,431.77065 c 2.37677,1.19344 6.17557,3.59247 8.6009,5.00843 l -4.59578,8.23071 c -2.42532,-1.41596 -5.6638,-3.39221 -8.04058,-4.58769 z m 0,0"
       id="path52" />
    <path
       style="fill:#000000;fill-opacity:1;fill-rule:nonzero;stroke:#000000;stroke-width:0.795533;stroke-linecap:round;stroke-linejoin:round;stroke-miterlimit:10;stroke-opacity:1"
       d="m 512.71354,429.25025 c 2.37474,1.19546 5.84787,3.40638 8.27117,4.82233 l -4.12649,8.65146 c -2.42532,-1.41596 -6.41223,-3.95455 -8.789,-5.15002 z m 0,0"
       id="path53" />
    <path
       style="fill:#000000;fill-opacity:1;fill-rule:nonzero;stroke:#000000;stroke-width:0.636427;stroke-linecap:round;stroke-linejoin:round;stroke-miterlimit:10;stroke-opacity:1"
       d="m 501.16544,481.31477 c -11.0687,5.11968 -25.37183,5.09743 -37.54899,5.79934 l -1.65668,9.40191 c 12.17517,-0.7019 26.48032,-0.67966 37.54901,-5.80134 z m 0,0"
       id="path54" />
    <path
       style="fill:#000000;fill-opacity:1;fill-rule:nonzero;stroke:#000000;stroke-width:0.636427;stroke-linecap:round;stroke-linejoin:round;stroke-miterlimit:10;stroke-opacity:1"
       d="m 463.61645,487.11411 c -3.1859,0.18407 -26.48031,0.22453 -28.00752,0.20632 l -1.65868,9.40191 c 1.5272,0.0182 24.82161,-0.0222 28.00952,-0.20632 z m 0,0"
       id="path55" />
    <path
       style="fill:#000000;fill-opacity:1;fill-rule:nonzero;stroke:#000000;stroke-width:0.636427;stroke-linecap:round;stroke-linejoin:round;stroke-miterlimit:10;stroke-opacity:1"
       d="m 442.00903,474.96119 c 2.81369,-6.96849 2.94315,-12.79614 1.45843,-30.87379 -2.04504,-24.92277 -3.2668,-34.35299 -4.41373,-46.03055 -0.59267,-1.43416 -1.24806,-2.56085 -1.66476,-4.3591 l -3.65314,8.81935 c 0.61089,1.331 1.07207,2.92494 1.66475,4.3591 1.25211,11.42471 2.41926,21.04914 4.33686,46.0002 2.05515,21.39301 0.70595,26.07981 1.81445,23.33893 z m 0,0"
       id="path56" />
    <path
       style="fill:#000000;fill-opacity:1;fill-rule:nonzero;stroke:#000000;stroke-width:0.636427;stroke-linecap:round;stroke-linejoin:round;stroke-miterlimit:10;stroke-opacity:1"
       d="m 437.38897,393.69775 c 3.69564,9.70331 8.35817,23.77178 6.50733,21.58111 l -0.83947,-0.97094 c -3.42458,-4.07592 -1.04376,-1.4119 -9.321,-11.79082 z m 0,0"
       id="path57" />
    <path
       style="fill:#000000;fill-opacity:1;fill-rule:nonzero;stroke:#000000;stroke-width:0.636427;stroke-linecap:round;stroke-linejoin:round;stroke-miterlimit:10;stroke-opacity:1"
       d="m 429.12185,496.13574 c 13.18655,-19.56845 25.20191,-32.34032 37.53484,-31.24599 8.17611,1.00531 13.98353,5.79932 16.29962,7.92123 1.27841,0.78687 0.0485,1.15905 -2.49409,2.58512 -15.3914,8.32377 -37.00083,12.22775 -58.27853,12.75974 -12.47048,0.62707 -20.94797,-0.4349 -17.67713,1.36943 l 1.57777,0.90823 c 5.8054,3.26883 12.48262,6.09264 14.44271,7.12223 21.27567,-0.52997 42.8851,-4.43394 58.27851,-12.75975 4.60792,-2.66197 6.85118,-4.77579 8.46738,-12.47452 0.89609,-7.2618 -7.45194,-15.01717 -17.35146,-16.40278 -13.50615,-1.4382 -25.57612,12.97214 -38.76267,32.5426 z m 0,0"
       id="path58" />
    <path
       style="fill:#008000;fill-opacity:1;fill-rule:nonzero;stroke:#000000;stroke-width:0.636427;stroke-linecap:round;stroke-linejoin:round;stroke-miterlimit:10;stroke-opacity:1"
       d="m 640.65685,421.87518 c -7.2072,2.73075 -24.05296,9.1794 -32.50012,12.39968 -2.89057,1.10647 -3.97073,1.56767 -4.13256,2.12797 l -1.95806,5.38264 c 0.63717,-0.68977 1.23997,-1.02151 4.13055,-2.12798 8.3986,-3.22836 25.29292,-9.66891 32.50212,-12.39969 z m 0,0"
       id="path59" />
    <path
       style="fill:#008000;fill-opacity:1;fill-rule:nonzero;stroke:#000000;stroke-width:0.636427;stroke-linecap:round;stroke-linejoin:round;stroke-miterlimit:10;stroke-opacity:1"
       d="m 563.84151,432.04574 c 2.73278,-0.66549 6.04409,0.59065 5.55457,5.15609 -0.008,0.0668 -0.0162,0.13149 -0.0284,0.1942 l -0.47333,3.17375 c 0.0324,-0.23869 0.0465,-0.47941 0.0404,-0.72214 -0.32164,-3.89994 -4.4117,-4.42586 -6.99884,-3.7725 z m 0,0"
       id="path60" />
    <path
       style="fill:#008000;fill-opacity:1;fill-rule:nonzero;stroke:#000000;stroke-width:0.636427;stroke-linecap:round;stroke-linejoin:round;stroke-miterlimit:10;stroke-opacity:1"
       d="m 569.36776,437.39603 c -0.50772,3.11508 -3.51156,3.6228 -5.26329,3.05642 -1.54137,-0.49962 -2.25743,-1.67285 -2.10573,-3.13329 0.36816,-2.45567 2.02481,-5.01045 2.25542,-6.18569 0.40252,-2.03491 -0.0465,-2.38892 -0.18004,-2.94922 l -0.12743,-0.65538 c -0.18812,-0.88598 -0.0668,1.70924 -1.28246,4.30651 -0.5421,1.15905 -2.59926,4.86075 -2.5487,8.04866 0.0284,1.69308 0.50165,3.71384 2.1219,4.61196 2.94316,1.63442 6.24637,-0.93251 6.657,-3.92622 z m 0,0"
       id="path61" />
    <path
       style="fill:#008000;fill-opacity:1;fill-rule:nonzero;stroke:#000000;stroke-width:0.636427;stroke-linecap:round;stroke-linejoin:round;stroke-miterlimit:10;stroke-opacity:1"
       d="m 525.92841,401.24679 c -7.20922,2.73279 -24.05298,9.1794 -32.50216,12.40171 -2.89055,1.10646 -3.9687,1.56766 -4.13255,2.12797 l -1.95806,5.38264 c 0.63718,-0.68977 1.24199,-1.0215 4.13053,-2.12797 8.40064,-3.22838 25.29496,-9.67095 32.50215,-12.40171 z m 0,0"
       id="path62" />
  </g>
</svg>
