<?xml version="1.0" encoding="UTF-8" standalone="no"?>
<svg
   width="1000pt"
   height="689pt"
   viewBox="0 0 1000 689"
   version="1.1"
   id="svg63"
   sodipodi:docname="Logo.svg"
   inkscape:version="1.3.2 (091e20e, 2023-11-25)"
   inkscape:export-filename="Logo.png"
   inkscape:export-xdpi="96"
   inkscape:export-ydpi="96"
   xmlns:inkscape="http://www.inkscape.org/namespaces/inkscape"
   xmlns:sodipodi="http://sodipodi.sourceforge.net/DTD/sodipodi-0.dtd"
   xmlns="http://www.w3.org/2000/svg"
   xmlns:svg="http://www.w3.org/2000/svg">
  <defs
     id="defs63" />
  <sodipodi:namedview
     id="namedview63"
     pagecolor="#ffffff"
     bordercolor="#000000"
     borderopacity="0.25"
     inkscape:showpageshadow="2"
     inkscape:pageopacity="0.0"
     inkscape:pagecheckerboard="0"
     inkscape:deskcolor="#d1d1d1"
     inkscape:document-units="pt"
     inkscape:zoom="1.109095"
     inkscape:cx="712.74328"
     inkscape:cy="407.99031"
     inkscape:window-width="1792"
     inkscape:window-height="1120"
     inkscape:window-x="0"
     inkscape:window-y="0"
     inkscape:window-maximized="0"
     inkscape:current-layer="surface570" />
  <g
     id="surface570">
    <path
       style="fill-rule:nonzero;fill:rgb(0%,0%,0%);fill-opacity:1;stroke-width:2;stroke-linecap:round;stroke-linejoin:round;stroke:rgb(0%,0%,0%);stroke-opacity:1;stroke-miterlimit:10;"
       d="M -118.744789 91.759966 C -102.725903 69.454303 -89.078067 63.904903 -77.947484 67.178604 C -71.082247 69.981909 -66.937678 80.756517 -65.068808 85.835521 C -63.988169 88.778673 -63.56227 90.380562 -62.996523 92.122298 C -62.500701 92.999522 -62.939313 93.317357 -64.331431 93.069446 C -71.15217 91.594691 -82.282753 87.507333 -91.61439 83.114853 C -99.274214 79.510603 -108.999967 73.058552 -115.750783 66.930693 C -118.198113 64.832981 -121.732438 73.815 -127.300908 83.261057 C -133.206283 92.783394 -141.177586 99.966466 -147.496146 103.526219 L -152.708641 133.072164 C -146.39008 129.512411 -138.418778 122.329339 -133.536831 112.603587 C -128.413331 102.877835 -125.73716 93.501702 -124.917145 94.626838 C -118.43331 101.536571 -106.145808 108.713287 -96.820528 112.660798 C -85.98871 117.580884 -67.611488 122.221276 -59.735536 122.615391 C -56.118573 122.799735 -49.28512 105.814631 -46.411891 96.266866 C -44.25697 87.602683 -45.407532 73.27468 -51.281124 59.512423 C -55.857948 48.775955 -64.17887 38.726011 -72.734989 37.632659 C -84.227904 36.164261 -95.803456 43.538034 -114.403162 70.528585 Z M -118.744789 91.759966 "
       transform="matrix(0.614509,0,0,0.614509,916.82912,176.63611)"
       id="path1" />
    <path
       style="fill-rule:nonzero;fill:rgb(0%,0%,0%);fill-opacity:1;stroke-width:2;stroke-linecap:round;stroke-linejoin:round;stroke:rgb(0%,0%,0%);stroke-opacity:1;stroke-miterlimit:10;"
       d="M -147.496146 103.526219 C -165.886081 113.900354 -192.075688 114.116482 -211.736964 106.424874 L -216.949458 135.970819 C -197.288183 143.662427 -171.098576 143.446299 -152.708641 133.072164 Z M -147.496146 103.526219 "
       transform="matrix(0.614509,0,0,0.614509,916.82912,176.63611)"
       id="path2" />
    <path
       style="fill-rule:nonzero;fill:rgb(0%,0%,0%);fill-opacity:1;stroke-width:2;stroke-linecap:round;stroke-linejoin:round;stroke:rgb(0%,0%,0%);stroke-opacity:1;stroke-miterlimit:10;"
       d="M -211.736964 106.424874 C -220.699912 102.915975 -231.976699 97.601774 -238.663948 90.043656 C -245.370267 82.606317 -249.120721 77.934142 -249.235141 72.327532 C -249.444913 62.506429 -227.113823 46.379479 -222.397151 46.710028 C -217.941104 47.027863 -214.533912 56.009881 -212.143793 61.038031 C -209.880807 65.7992 -207.655962 74.660441 -207.859376 76.624661 C -208.094574 78.951214 -213.917312 83.756879 -219.803617 88.320991 C -230.304887 95.713834 -241.874082 102.172241 -249.057154 105.490439 L -254.269648 135.036384 C -247.086577 131.71183 -235.517381 125.259779 -225.009755 117.860579 C -211.870455 109.024765 -200.835222 92.071444 -197.478884 77.476459 C -196.309251 72.384742 -195.699008 66.110678 -195.508307 59.836615 C -195.845212 38.484457 -207.128356 14.373491 -219.911681 16.814464 C -235.085126 20.100878 -259.641061 51.509337 -258.884613 77.597236 C -257.842114 100.11267 -252.972881 110.823711 -243.876443 119.583245 C -235.809789 127.35749 -225.912406 132.46192 -216.949458 135.970819 Z M -211.736964 106.424874 "
       transform="matrix(0.614509,0,0,0.614509,916.82912,176.63611)"
       id="path3" />
    <path
       style="fill-rule:nonzero;fill:rgb(0%,0%,0%);fill-opacity:1;stroke-width:2.5;stroke-linecap:round;stroke-linejoin:round;stroke:rgb(0%,0%,0%);stroke-opacity:1;stroke-miterlimit:10;"
       d="M -254.962529 -50.204232 C -247.493405 -46.447422 -235.555521 -38.908375 -227.933837 -34.458684 L -242.376261 -8.593269 C -249.997946 -13.042959 -260.168667 -19.259813 -267.63779 -23.010266 Z M -254.962529 -50.204232 "
       transform="matrix(0.614509,0,0,0.614509,916.82912,176.63611)"
       id="path4" />
    <path
       style="fill-rule:nonzero;fill:rgb(0%,0%,0%);fill-opacity:1;stroke-width:2.5;stroke-linecap:round;stroke-linejoin:round;stroke:rgb(0%,0%,0%);stroke-opacity:1;stroke-miterlimit:10;"
       d="M -212.773106 -58.118324 C -205.303983 -54.361514 -194.395884 -47.419997 -186.7742 -42.96395 L -199.748226 -15.776341 C -207.36991 -20.226031 -219.898968 -28.203691 -227.361734 -31.960501 Z M -212.773106 -58.118324 "
       transform="matrix(0.614509,0,0,0.614509,916.82912,176.63611)"
       id="path5" />
    <path
       style="fill-rule:nonzero;fill:rgb(0%,0%,0%);fill-opacity:1;stroke-width:2;stroke-linecap:round;stroke-linejoin:round;stroke:rgb(0%,0%,0%);stroke-opacity:1;stroke-miterlimit:10;"
       d="M -249.057154 105.490439 C -266.855916 113.728723 -294.488494 121.757236 -308.67665 108.211107 L -313.882788 137.757052 C -299.700989 151.296825 -272.06841 143.274668 -254.269648 135.036384 Z M -249.057154 105.490439 "
       transform="matrix(0.614509,0,0,0.614509,916.82912,176.63611)"
       id="path6" />
    <path
       style="fill-rule:nonzero;fill:rgb(0%,0%,0%);fill-opacity:1;stroke-width:2;stroke-linecap:round;stroke-linejoin:round;stroke:rgb(0%,0%,0%);stroke-opacity:1;stroke-miterlimit:10;"
       d="M -308.67665 108.211107 C -310.56459 106.412161 -314.035349 101.835336 -316.266551 97.379289 C -318.103637 93.711473 -319.336837 90.177147 -319.591105 85.568539 C -320.277629 80.006426 -317.105635 70.598509 -325.55369 77.775224 C -329.183367 80.858224 -332.043882 84.856589 -335.546424 88.759603 C -339.398585 93.355498 -344.719143 99.076528 -348.850999 102.42651 L -354.063493 131.972454 C -349.925281 128.622473 -344.604722 122.901443 -340.758919 118.305548 C -337.256376 114.402534 -332.851183 108.853134 -330.759828 106.107039 C -328.172651 102.706204 -326.67247 108.363668 -325.649041 113.887641 C -324.701893 118.992072 -323.258921 123.365482 -321.472689 126.925234 C -319.241487 131.381281 -315.770728 135.958106 -313.882788 137.757052 Z M -308.67665 108.211107 "
       transform="matrix(0.614509,0,0,0.614509,916.82912,176.63611)"
       id="path7" />
    <path
       style="fill-rule:nonzero;fill:rgb(0%,0%,0%);fill-opacity:1;stroke-width:2.5;stroke-linecap:round;stroke-linejoin:round;stroke:rgb(0%,0%,0%);stroke-opacity:1;stroke-miterlimit:10;"
       d="M -338.178098 167.322067 C -330.708975 171.072521 -319.502111 176.551997 -311.886784 181.001687 L -324.562045 208.195653 C -332.183729 203.739606 -343.390593 198.266486 -350.853359 194.509676 Z M -338.178098 167.322067 "
       transform="matrix(0.614509,0,0,0.614509,916.82912,176.63611)"
       id="path8" />
    <path
       style="fill-rule:nonzero;fill:rgb(0%,0%,0%);fill-opacity:1;stroke-width:2;stroke-linecap:round;stroke-linejoin:round;stroke:rgb(0%,0%,0%);stroke-opacity:1;stroke-miterlimit:10;"
       d="M -348.850999 102.42651 C -361.818668 112.915066 -387.239114 114.726725 -399.44398 103.360945 L -404.650118 132.90689 C -392.451609 144.27267 -367.024806 142.461011 -354.063493 131.972454 Z M -348.850999 102.42651 "
       transform="matrix(0.614509,0,0,0.614509,916.82912,176.63611)"
       id="path9" />
    <path
       style="fill-rule:nonzero;fill:rgb(0%,0%,0%);fill-opacity:1;stroke-width:2;stroke-linecap:round;stroke-linejoin:round;stroke:rgb(0%,0%,0%);stroke-opacity:1;stroke-miterlimit:10;"
       d="M -399.44398 103.360945 C -405.139584 98.053099 -408.801043 92.312999 -417.357162 82.460113 L -422.995556 112.781575 C -415.748917 122.589964 -410.345721 127.599044 -404.650118 132.90689 Z M -399.44398 103.360945 "
       transform="matrix(0.614509,0,0,0.614509,916.82912,176.63611)"
       id="path10" />
    <path
       style="fill-rule:nonzero;fill:rgb(0%,0%,0%);fill-opacity:1;stroke-width:2;stroke-linecap:round;stroke-linejoin:round;stroke:rgb(0%,0%,0%);stroke-opacity:1;stroke-miterlimit:10;"
       d="M -417.357162 82.460113 C -407.675907 97.646271 -396.500827 123.60068 -392.712234 140.852765 C -386.45724 158.715094 -397.721314 192.418322 -396.92037 181.097038 L -396.627961 178.090318 C -397.022077 173.449927 -398.178996 169.820251 -399.246922 163.724175 C -403.556765 146.986982 -412.882045 127.192216 -422.995556 112.781575 Z M -417.357162 82.460113 "
       transform="matrix(0.614509,0,0,0.614509,916.82912,176.63611)"
       id="path11" />
    <path
       style="fill-rule:nonzero;fill:rgb(0%,0%,0%);fill-opacity:1;stroke-width:2;stroke-linecap:round;stroke-linejoin:round;stroke:rgb(0%,0%,0%);stroke-opacity:1;stroke-miterlimit:10;"
       d="M -391.44725 157.31662 C -391.205696 153.54074 -393.735662 158.022214 -396.017718 160.755595 C -398.890947 165.872739 -402.06294 169.941028 -410.13595 177.931401 C -439.23057 206.511127 -512.466119 249.577775 -534.384023 258.629717 C -549.703672 265.761935 -583.165344 280.363276 -613.168972 290.025461 L -617.580522 291.70363 C -632.340781 296.350379 -552.869309 291.926115 -531.434514 286.05888 C -512.033863 279.009299 -440.896025 236.368551 -412.557853 207.820608 C -402.348992 197.535466 -398.26799 191.159695 -394.759091 179.418869 C -392.235481 170.9581 -392.108347 166.04437 -391.548957 158.956649 Z M -391.44725 157.31662 "
       transform="matrix(0.614509,0,0,0.614509,916.82912,176.63611)"
       id="path12" />
    <path
       style="fill-rule:nonzero;fill:rgb(0%,0%,0%);fill-opacity:1;stroke-width:2;stroke-linecap:round;stroke-linejoin:round;stroke:rgb(0%,0%,0%);stroke-opacity:1;stroke-miterlimit:10;"
       d="M -455.325736 -5.313211 C -454.048039 -14.892759 -458.307028 1.424892 -471.052213 20.895466 C -482.85025 41.109774 -502.378035 66.631928 -518.759252 92.046017 C -531.612501 111.986987 -534.104328 140.674778 -527.353512 159.338051 C -522.865681 176.685487 -482.77397 160.170779 -472.094712 143.56072 C -459.184253 122.729812 -460.067835 94.862036 -466.958498 82.05964 C -475.692605 65.830983 -515.053296 32.000622 -526.99118 12.89238 C -529.45758 7.279413 -531.415444 6.344978 -534.720928 3.980285 L -539.927066 33.52623 C -536.621581 35.884566 -534.670074 36.825358 -530.379301 40.588525 C -515.053296 61.997893 -480.9051 95.376928 -476.64611 102.299375 C -471.160277 109.139185 -469.456682 110.283392 -472.094712 113.557092 C -482.77397 130.167151 -521.467207 145.601221 -523.819186 131.063446 C -524.416716 126.308634 -518.886386 117.339329 -508.690238 100.449576 C -500.299393 86.553828 -486.390932 67.076897 -475.082362 47.739813 C -464.89257 30.316096 -458.071831 15.892742 -456.12668 0.0899844 Z M -455.325736 -5.313211 "
       transform="matrix(0.614509,0,0,0.614509,916.82912,176.63611)"
       id="path13" />
    <path
       style="fill-rule:nonzero;fill:rgb(0%,0%,0%);fill-opacity:1;stroke-width:2;stroke-linecap:round;stroke-linejoin:round;stroke:rgb(0%,0%,0%);stroke-opacity:1;stroke-miterlimit:10;"
       d="M -534.720928 3.980285 C -520.068733 15.117225 -511.321913 22.535495 -502.352608 27.690779 L -499.759074 29.368948 C -494.673713 32.305744 -530.875124 33.615224 -539.927066 33.52623 Z M -534.720928 3.980285 "
       transform="matrix(0.614509,0,0,0.614509,916.82912,176.63611)"
       id="path14" />
    <path
       style="fill-rule:nonzero;fill:rgb(0%,0%,0%);fill-opacity:1;stroke-width:2.5;stroke-linecap:round;stroke-linejoin:round;stroke:rgb(0%,0%,0%);stroke-opacity:1;stroke-miterlimit:10;"
       d="M -525.274871 -74.976294 C -517.805747 -71.225841 -505.867863 -63.686794 -498.246179 -59.237103 L -512.688603 -33.371688 C -520.310287 -37.821379 -530.481009 -44.031875 -537.950132 -47.788685 Z M -525.274871 -74.976294 "
       transform="matrix(0.614509,0,0,0.614509,916.82912,176.63611)"
       id="path15" />
    <path
       style="fill-rule:nonzero;fill:rgb(0%,0%,0%);fill-opacity:1;stroke-width:2.5;stroke-linecap:round;stroke-linejoin:round;stroke:rgb(0%,0%,0%);stroke-opacity:1;stroke-miterlimit:10;"
       d="M -483.085448 -82.896744 C -475.616325 -79.139933 -464.708226 -72.19206 -457.086542 -67.742369 L -470.060568 -40.55476 C -477.682252 -45.004451 -490.211309 -52.98211 -497.674076 -56.73892 Z M -483.085448 -82.896744 "
       transform="matrix(0.614509,0,0,0.614509,916.82912,176.63611)"
       id="path16" />
    <path
       style="fill-rule:nonzero;fill:rgb(0%,0%,0%);fill-opacity:1;stroke-width:2;stroke-linecap:round;stroke-linejoin:round;stroke:rgb(0%,0%,0%);stroke-opacity:1;stroke-miterlimit:10;"
       d="M -685.679857 133.237438 C -669.667328 110.931775 -656.013135 105.382375 -644.882552 108.656076 C -638.023672 111.459381 -633.879103 122.233989 -632.010233 127.312993 C -630.923237 130.256145 -630.497338 131.858034 -629.937948 133.59977 C -629.435769 134.483351 -629.880738 134.79483 -631.266499 134.546918 C -638.093595 133.072164 -649.224178 128.984805 -658.555815 124.592325 C -666.215639 120.988076 -675.941391 114.536024 -682.685851 108.414522 C -685.133181 106.310454 -688.673863 115.292472 -694.235976 124.738529 C -700.147708 134.260867 -708.11901 141.443939 -714.437571 145.003691 L -719.643709 174.549636 C -713.331505 170.989884 -705.353846 163.806812 -700.471899 154.08106 C -695.348399 144.355308 -692.672228 134.979174 -691.85857 136.10431 C -685.368379 143.014044 -673.080876 150.190759 -663.761953 154.13827 C -652.930135 159.058356 -634.552913 163.698748 -626.670604 164.092863 C -623.059998 164.277208 -616.220188 147.292103 -613.353316 137.744339 C -611.192038 129.080156 -612.348957 114.752152 -618.222549 100.989895 C -622.799373 90.253428 -631.120295 80.203484 -639.676414 79.110131 C -651.169329 77.641733 -662.738524 85.015506 -681.33823 112.006058 Z M -685.679857 133.237438 "
       transform="matrix(0.614509,0,0,0.614509,916.82912,176.63611)"
       id="path17" />
    <path
       style="fill-rule:nonzero;fill:rgb(0%,0%,0%);fill-opacity:1;stroke-width:2;stroke-linecap:round;stroke-linejoin:round;stroke:rgb(0%,0%,0%);stroke-opacity:1;stroke-miterlimit:10;"
       d="M -714.437571 145.003691 C -726.051263 151.557449 -744.790817 150.228899 -754.433932 141.024396 L -759.646427 170.563985 C -750.003312 179.774844 -731.257401 181.103394 -719.643709 174.549636 Z M -714.437571 145.003691 "
       transform="matrix(0.614509,0,0,0.614509,916.82912,176.63611)"
       id="path18" />
    <path
       style="fill-rule:nonzero;fill:rgb(0%,0%,0%);fill-opacity:1;stroke-width:2;stroke-linecap:round;stroke-linejoin:round;stroke:rgb(0%,0%,0%);stroke-opacity:1;stroke-miterlimit:10;"
       d="M -754.433932 141.024396 C -756.321872 139.219093 -759.792631 134.648626 -762.023833 130.192578 C -763.860919 126.524762 -765.094119 122.990436 -765.354744 118.375472 C -766.041268 112.819715 -762.869274 103.411798 -771.310972 110.582157 C -774.940649 113.665156 -777.807521 117.669878 -781.310063 121.572892 C -785.155867 126.168787 -790.476425 131.889817 -794.614637 135.233442 L -799.820775 164.779387 C -795.68892 161.429406 -790.368361 155.708375 -786.516201 151.11248 C -783.013658 147.209466 -778.614822 141.660066 -776.523467 138.920328 C -773.929933 135.513137 -772.429752 141.1706 -771.406323 146.70093 C -770.465531 151.805361 -769.016203 156.172414 -767.236327 159.732167 C -765.005125 164.194571 -761.534367 168.765038 -759.646427 170.563985 Z M -754.433932 141.024396 "
       transform="matrix(0.614509,0,0,0.614509,916.82912,176.63611)"
       id="path19" />
    <path
       style="fill-rule:nonzero;fill:rgb(0%,0%,0%);fill-opacity:1;stroke-width:2.5;stroke-linecap:round;stroke-linejoin:round;stroke:rgb(0%,0%,0%);stroke-opacity:1;stroke-miterlimit:10;"
       d="M -804.880709 203.720536 C -797.417942 207.477346 -785.473702 215.010036 -777.858374 219.459727 L -792.300798 245.331499 C -799.922482 240.875451 -810.093204 234.664955 -817.562327 230.908145 Z M -804.880709 203.720536 "
       transform="matrix(0.614509,0,0,0.614509,916.82912,176.63611)"
       id="path20" />
    <path
       style="fill-rule:nonzero;fill:rgb(0%,0%,0%);fill-opacity:1;stroke-width:2.5;stroke-linecap:round;stroke-linejoin:round;stroke:rgb(0%,0%,0%);stroke-opacity:1;stroke-miterlimit:10;"
       d="M -762.697643 195.800087 C -755.22852 199.556897 -744.320421 206.504771 -736.698737 210.954461 L -749.672763 238.14207 C -757.294447 233.69238 -769.817148 225.721077 -777.286271 221.964267 Z M -762.697643 195.800087 "
       transform="matrix(0.614509,0,0,0.614509,916.82912,176.63611)"
       id="path21" />
    <path
       style="fill-rule:nonzero;fill:rgb(0%,0%,0%);fill-opacity:1;stroke-width:2;stroke-linecap:round;stroke-linejoin:round;stroke:rgb(0%,0%,0%);stroke-opacity:1;stroke-miterlimit:10;"
       d="M -794.614637 135.233442 C -811.345474 148.118474 -841.495305 157.83787 -858.861812 145.823705 L -864.067949 175.36965 C -846.701443 187.377458 -816.551612 177.658063 -799.820775 164.779387 Z M -794.614637 135.233442 "
       transform="matrix(0.614509,0,0,0.614509,916.82912,176.63611)"
       id="path22" />
    <path
       style="fill-rule:nonzero;fill:rgb(0%,0%,0%);fill-opacity:1;stroke-width:2;stroke-linecap:round;stroke-linejoin:round;stroke:rgb(0%,0%,0%);stroke-opacity:1;stroke-miterlimit:10;"
       d="M -858.861812 145.823705 C -866.311865 140.674778 -875.30024 132.169512 -878.084475 90.882741 C -882.12098 -0.126143 -887.276264 -65.740008 -893.550327 -106.994996 C -895.272993 -119.441416 -897.923738 -132.51715 -900.097729 -140.482096 L -911.577931 -112.76688 C -909.403939 -104.801934 -906.753195 -91.726201 -905.030529 -79.279781 C -899.957882 -38.552399 -894.796241 27.061466 -890.282983 118.292835 C -887.498748 159.579606 -871.524359 170.214366 -864.067949 175.36965 Z M -858.861812 145.823705 "
       transform="matrix(0.614509,0,0,0.614509,916.82912,176.63611)"
       id="path23" />
    <path
       style="fill-rule:nonzero;fill:rgb(0%,0%,0%);fill-opacity:1;stroke-width:2;stroke-linecap:round;stroke-linejoin:round;stroke:rgb(0%,0%,0%);stroke-opacity:1;stroke-miterlimit:10;"
       d="M -932.535973 23.412719 C -927.946435 28.065824 -967.071928 20.062738 -970.002367 19.090163 L -963.416825 -9.724761 C -958.979848 -4.56312 -947.029251 8.811378 -934.964233 21.00353 Z M -932.535973 23.412719 "
       transform="matrix(0.614509,0,0,0.614509,916.82912,176.63611)"
       id="path24" />
    <path
       style="fill-rule:nonzero;fill:rgb(0%,0%,0%);fill-opacity:1;stroke-width:2;stroke-linecap:round;stroke-linejoin:round;stroke:rgb(0%,0%,0%);stroke-opacity:1;stroke-miterlimit:10;"
       d="M -970.002367 19.090163 C -969.315843 19.299934 -966.067569 20.895466 -964.688165 21.410359 C -958.528522 45.139923 -947.232665 64.362586 -943.628416 72.569086 C -942.554133 75.995348 -940.443709 79.980999 -939.623694 82.110494 C -938.918101 83.496255 -938.549412 83.998434 -940.049593 85.708387 C -942.871968 88.219283 -947.200882 90.228001 -950.0169 91.537481 L -955.229395 121.083426 C -952.413376 119.773946 -947.766628 116.976997 -944.124238 113.830431 C -933.470408 104.638641 -930.533612 90.577619 -929.878872 88.231997 C -928.556678 83.483541 -926.439897 67.286668 -934.036154 47.962298 C -936.585191 40.207123 -947.130958 23.775051 -952.311669 2.37204 C -953.443162 0.287042 -961.719586 -7.728757 -963.416825 -9.724761 Z M -970.002367 19.090163 "
       transform="matrix(0.614509,0,0,0.614509,916.82912,176.63611)"
       id="path25" />
    <path
       style="fill-rule:nonzero;fill:rgb(0%,0%,0%);fill-opacity:1;stroke-width:2.5;stroke-linecap:round;stroke-linejoin:round;stroke:rgb(0%,0%,0%);stroke-opacity:1;stroke-miterlimit:10;"
       d="M -956.093906 150.648441 C -948.624783 154.398895 -937.417919 159.878371 -929.802592 164.328061 L -942.477853 191.51567 C -950.099537 187.06598 -961.306401 181.59286 -968.769167 177.83605 Z M -956.093906 150.648441 "
       transform="matrix(0.614509,0,0,0.614509,916.82912,176.63611)"
       id="path26" />
    <path
       style="fill-rule:nonzero;fill:rgb(0%,0%,0%);fill-opacity:1;stroke-width:2;stroke-linecap:round;stroke-linejoin:round;stroke:rgb(0%,0%,0%);stroke-opacity:1;stroke-miterlimit:10;"
       d="M -950.0169 91.537481 C -964.592815 98.307367 -987.127319 101.136099 -998.753725 90.043656 L -1003.959862 119.589601 C -992.339814 130.682044 -969.805309 127.853312 -955.229395 121.083426 Z M -950.0169 91.537481 "
       transform="matrix(0.614509,0,0,0.614509,916.82912,176.63611)"
       id="path27" />
    <path
       style="fill-rule:nonzero;fill:rgb(0%,0%,0%);fill-opacity:1;stroke-width:2;stroke-linecap:round;stroke-linejoin:round;stroke:rgb(0%,0%,0%);stroke-opacity:1;stroke-miterlimit:10;"
       d="M -998.753725 90.043656 C -1000.641665 88.24471 -1004.106067 83.667886 -1006.343625 79.211838 C -1008.180712 75.544022 -1009.413912 72.009697 -1009.66818 67.401088 C -1010.354703 61.838975 -1007.18271 52.431058 -1015.630765 59.607773 C -1019.260441 62.690773 -1022.120956 66.689138 -1025.623499 70.592152 C -1029.475659 75.188047 -1034.796218 80.909078 -1038.928073 84.259059 L -1044.140568 113.798647 C -1040.002356 110.455023 -1034.681797 104.733992 -1030.835993 100.138097 C -1027.333451 96.235083 -1022.928257 90.685683 -1020.836903 87.939589 C -1018.249726 84.538754 -1016.749544 90.196217 -1015.726116 95.72019 C -1014.778967 100.824621 -1013.335996 105.191674 -1011.549763 108.757783 C -1009.318561 113.213831 -1005.847803 117.784298 -1003.959862 119.589601 Z M -998.753725 90.043656 "
       transform="matrix(0.614509,0,0,0.614509,916.82912,176.63611)"
       id="path28" />
    <path
       style="fill-rule:nonzero;fill:rgb(0%,0%,0%);fill-opacity:1;stroke-width:2.5;stroke-linecap:round;stroke-linejoin:round;stroke:rgb(0%,0%,0%);stroke-opacity:1;stroke-miterlimit:10;"
       d="M -1049.200502 152.739796 C -1041.731378 156.496606 -1029.793494 164.035653 -1022.17181 168.485343 L -1036.614234 194.350759 C -1044.235918 189.901068 -1054.412996 183.684215 -1061.875763 179.933762 Z M -1049.200502 152.739796 "
       transform="matrix(0.614509,0,0,0.614509,916.82912,176.63611)"
       id="path29" />
    <path
       style="fill-rule:nonzero;fill:rgb(0%,0%,0%);fill-opacity:1;stroke-width:2.5;stroke-linecap:round;stroke-linejoin:round;stroke:rgb(0%,0%,0%);stroke-opacity:1;stroke-miterlimit:10;"
       d="M -1007.011079 144.825703 C -999.548312 148.582514 -988.633857 155.524031 -981.012173 159.980078 L -993.986199 187.167687 C -1001.607883 182.717996 -1014.13694 174.740337 -1021.606064 170.983527 Z M -1007.011079 144.825703 "
       transform="matrix(0.614509,0,0,0.614509,916.82912,176.63611)"
       id="path30" />
    <path
       style="fill-rule:nonzero;fill:rgb(0%,0%,0%);fill-opacity:1;stroke-width:2;stroke-linecap:round;stroke-linejoin:round;stroke:rgb(0%,0%,0%);stroke-opacity:1;stroke-miterlimit:10;"
       d="M -1038.928073 84.259059 C -1052.861961 95.529489 -1077.945502 98.256514 -1093.347788 89.102865 L -1098.560283 118.642453 C -1082.935512 127.427413 -1058.074456 125.075434 -1044.140568 113.798647 Z M -1038.928073 84.259059 "
       transform="matrix(0.614509,0,0,0.614509,916.82912,176.63611)"
       id="path31" />
    <path
       style="fill-rule:nonzero;fill:rgb(0%,0%,0%);fill-opacity:1;stroke-width:2;stroke-linecap:round;stroke-linejoin:round;stroke:rgb(0%,0%,0%);stroke-opacity:1;stroke-miterlimit:10;"
       d="M -1093.347788 89.102865 C -1098.814551 85.854591 -1102.762062 82.218558 -1106.309101 78.436321 C -1109.767146 74.444313 -1112.703942 71.32953 -1118.571177 61.972466 L -1124.063366 93.113943 C -1120.122212 101.339514 -1115.672521 103.856767 -1111.521596 107.982266 C -1107.618581 111.720006 -1104.408447 115.356039 -1098.560283 118.642453 Z M -1093.347788 89.102865 "
       transform="matrix(0.614509,0,0,0.614509,916.82912,176.63611)"
       id="path32" />
    <path
       style="fill-rule:nonzero;fill:rgb(0%,0%,0%);fill-opacity:1;stroke-width:2;stroke-linecap:round;stroke-linejoin:round;stroke:rgb(0%,0%,0%);stroke-opacity:1;stroke-miterlimit:10;"
       d="M -1118.571177 61.972466 C -1097.149095 99.578708 -1089.864316 132.9641 -1091.440778 159.903798 C -1092.731188 170.983527 -1093.430425 170.9581 -1096.8694 180.849126 L -1098.356868 184.05926 C -1100.619854 190.530382 -1100.391013 174.066527 -1101.668709 164.181857 C -1104.255887 144.151893 -1109.487451 120.937222 -1124.063366 93.113943 Z M -1118.571177 61.972466 "
       transform="matrix(0.614509,0,0,0.614509,916.82912,176.63611)"
       id="path33" />
    <path
       style="fill-rule:nonzero;fill:rgb(0%,0%,0%);fill-opacity:1;stroke-width:2;stroke-linecap:round;stroke-linejoin:round;stroke:rgb(0%,0%,0%);stroke-opacity:1;stroke-miterlimit:10;"
       d="M -1096.653273 161.772668 C -1097.555924 163.120288 -1099.119672 164.887451 -1102.412443 168.593407 C -1104.611862 170.672049 -1109.029769 175.782836 -1118.056284 183.118469 C -1155.993074 212.295725 -1195.805091 232.53546 -1239.748963 238.587039 C -1272.231703 241.809886 -1287.265301 233.876724 -1296.317242 226.591945 C -1310.75331 216.262306 -1324.229515 188.267396 -1318.673759 156.356759 C -1315.959448 136.498425 -1310.816877 123.778667 -1310.23206 120.129921 L -1309.679027 116.970641 C -1307.511392 103.507149 -1323.542992 140.147172 -1326.587851 155.657521 C -1336.650509 208.939387 -1316.099295 242.210359 -1297.919131 255.686564 C -1285.498138 265.107195 -1269.619099 271.692737 -1239.748963 268.58431 C -1198.417695 262.41831 -1157.041929 242.280282 -1119.10514 213.096669 C -1095.769691 195.145346 -1093.462209 178.999327 -1091.714116 164.690393 C -1091.22465 155.066348 -1091.7459 155.212552 -1093.678337 157.844226 Z M -1096.653273 161.772668 "
       transform="matrix(0.614509,0,0,0.614509,916.82912,176.63611)"
       id="path34" />
    <path
       style="fill-rule:nonzero;fill:rgb(0%,0%,0%);fill-opacity:1;stroke-width:2.5;stroke-linecap:round;stroke-linejoin:round;stroke:rgb(0%,0%,0%);stroke-opacity:1;stroke-miterlimit:10;"
       d="M -1217.042828 -8.466135 C -1209.573704 -4.709325 -1198.373198 0.770151 -1190.751513 5.219842 L -1203.426775 32.407451 C -1211.048459 27.95776 -1222.255322 22.484641 -1229.718089 18.727831 Z M -1217.042828 -8.466135 "
       transform="matrix(0.614509,0,0,0.614509,916.82912,176.63611)"
       id="path35" />
    <path
       style="fill-rule:nonzero;fill:#008000;fill-opacity:1;stroke-width:2;stroke-linecap:round;stroke-linejoin:round;stroke:rgb(0%, 0%, 0%);stroke-opacity:1;stroke-miterlimit:10"
       d="M -27.386286 -55.785415 C -50.041567 -47.203869 -102.973814 -26.938707 -129.525753 -16.81884 C -138.603122 -13.341724 -141.9976 -11.892396 -142.506136 -10.125234 L -148.665779 6.789947 C -146.663418 4.615955 -144.762765 3.573456 -135.67904 0.0963411 C -109.286018 -10.042597 -56.194854 -30.288688 -33.539572 -38.870234 Z M -27.386286 -55.785415 "
       transform="matrix(0.614509,0,0,0.614509,916.82912,176.63611)"
       id="path36" />
    <path
       style="fill-rule:nonzero;fill:#008000;fill-opacity:1;stroke-width:2;stroke-linecap:round;stroke-linejoin:round;stroke:rgb(0%, 0%, 0%);stroke-opacity:1;stroke-miterlimit:10"
       d="M -232.574229 -136.27396 C -223.986326 -138.371671 -213.580407 -134.42416 -215.112372 -120.077086 C -215.144155 -119.867315 -215.169582 -119.663901 -215.201366 -119.466843 L -216.69519 -109.486823 C -216.593483 -110.236913 -216.54263 -110.999718 -216.5617 -111.762522 C -217.572415 -124.018241 -230.425664 -125.670983 -238.555884 -123.617768 Z M -232.574229 -136.27396 "
       transform="matrix(0.614509,0,0,0.614509,916.82912,176.63611)"
       id="path37" />
    <path
       style="fill-rule:nonzero;fill:#008000;fill-opacity:1;stroke-width:2;stroke-linecap:round;stroke-linejoin:round;stroke:rgb(0%, 0%, 0%);stroke-opacity:1;stroke-miterlimit:10"
       d="M -215.201366 -119.466843 C -216.803254 -109.677524 -226.242955 -108.081992 -231.741501 -109.861868 C -236.591664 -111.431973 -238.841936 -115.11886 -238.358826 -119.708398 C -237.208264 -127.425432 -232.002126 -135.453945 -231.271105 -139.147188 C -230.012478 -145.542029 -231.423666 -146.648095 -231.836852 -148.415258 L -232.24368 -150.474829 C -232.834854 -153.252707 -232.453451 -145.09706 -236.267472 -136.941413 C -237.977424 -133.299024 -244.435832 -121.666261 -244.276915 -111.648101 C -244.194278 -106.327542 -242.700453 -99.977198 -237.608736 -97.148467 C -228.366093 -92.018609 -217.985601 -100.085262 -216.69519 -109.486823 Z M -215.201366 -119.466843 "
       transform="matrix(0.614509,0,0,0.614509,916.82912,176.63611)"
       id="path38" />
    <path
       style="fill-rule:nonzero;fill:#008000;fill-opacity:1;stroke-width:2;stroke-linecap:round;stroke-linejoin:round;stroke:rgb(0%, 0%, 0%);stroke-opacity:1;stroke-miterlimit:10"
       d="M -319.724596 -31.979571 C -342.373521 -23.391668 -395.312124 -3.132863 -421.864063 6.993361 C -430.941432 10.470477 -434.33591 11.919804 -434.844446 13.680611 L -441.004089 30.595791 C -439.001728 28.428156 -437.101075 27.385657 -428.017349 23.908542 C -401.624328 13.763248 -348.533164 -6.476487 -325.877882 -15.06439 Z M -319.724596 -31.979571 "
       transform="matrix(0.614509,0,0,0.614509,916.82912,176.63611)"
       id="path39" />
    <path
       style="fill-rule:nonzero;fill:#008000;fill-opacity:1;stroke-width:2;stroke-linecap:round;stroke-linejoin:round;stroke:rgb(0%, 0%, 0%);stroke-opacity:1;stroke-miterlimit:10"
       d="M -492.620499 -127.069457 C -496.5108 -129.54857 -500.070552 -132.097607 -505.346614 -135.682786 C -513.127216 -140.793574 -524.766335 -147.067637 -518.034589 -161.427424 C -514.169714 -169.672065 -495.938697 -181.857861 -490.154099 -170.975189 C -486.861328 -162.762332 -488.806479 -152.222922 -497.16554 -137.742358 C -500.725292 -131.582714 -506.967573 -124.253439 -511.239275 -119.51134 C -528.999897 -99.786497 -536.723289 -95.902553 -547.618674 -89.361508 C -553.918164 -85.979743 -574.723646 -74.321554 -583.534033 -70.482107 L -588.365125 -68.371682 C -597.645908 -64.309751 -578.416889 -75.878946 -573.140827 -79.74382 C -554.318636 -92.380941 -537.339889 -103.136479 -511.658818 -127.501713 C -507.209127 -131.716205 -502.314468 -138.18097 -499.415812 -143.304471 C -496.49173 -150.894371 -496.56801 -157.149365 -499.581086 -160.829895 C -501.723294 -163.455212 -508.28341 -162.705121 -511.309199 -158.910171 C -510.616319 -155.553833 -506.185698 -152.343699 -498.347886 -147.805015 C -494.648287 -145.840794 -490.147742 -142.719654 -485.831543 -139.312463 Z M -492.620499 -127.069457 "
       transform="matrix(0.614509,0,0,0.614509,916.82912,176.63611)"
       id="path40" />
    <path
       style="fill-rule:nonzero;fill:rgb(0%,0%,0%);fill-opacity:1;stroke-width:2;stroke-linecap:round;stroke-linejoin:round;stroke:rgb(0%,0%,0%);stroke-opacity:1;stroke-miterlimit:10;"
       d="M -583.534033 -70.482107 C -583.839154 -70.348616 -584.137919 -70.221482 -584.411258 -70.107062 L -588.04729 -68.51153 C -588.155354 -68.460676 -588.263418 -68.416179 -588.365125 -68.371682 Z M -583.534033 -70.482107 "
       transform="matrix(0.614509,0,0,0.614509,916.82912,176.63611)"
       id="path41" />
    <path
       style="fill-rule:nonzero;fill:#008000;fill-opacity:1;stroke-width:2;stroke-linecap:round;stroke-linejoin:round;stroke:rgb(0%, 0%, 0%);stroke-opacity:1;stroke-miterlimit:10"
       d="M -611.694217 206.581051 C -635.188583 215.334228 -658.91179 223.877634 -682.49515 232.465536 L -684.230529 242.312066 C -660.647169 233.724163 -636.923962 225.180757 -613.429596 216.42758 Z M -611.694217 206.581051 "
       transform="matrix(0.614509,0,0,0.614509,916.82912,176.63611)"
       id="path42" />
    <path
       style="fill-rule:nonzero;fill:#008000;fill-opacity:1;stroke-width:2;stroke-linecap:round;stroke-linejoin:round;stroke:rgb(0%, 0%, 0%);stroke-opacity:1;stroke-miterlimit:10"
       d="M -716.764123 -24.319746 C -739.413048 -15.7382 -792.351652 4.526962 -818.897234 14.646829 C -827.980959 18.123944 -831.375438 19.573272 -831.883974 21.340435 L -838.03726 38.249259 C -836.034899 36.081624 -834.134246 35.039125 -825.056877 31.56201 C -798.663856 21.416715 -745.572691 1.17698 -722.91741 -7.404566 Z M -716.764123 -24.319746 "
       transform="matrix(0.614509,0,0,0.614509,916.82912,176.63611)"
       id="path43" />
    <path
       style="fill-rule:nonzero;fill:#008000;fill-opacity:1;stroke-width:2;stroke-linecap:round;stroke-linejoin:round;stroke:rgb(0%, 0%, 0%);stroke-opacity:1;stroke-miterlimit:10"
       d="M -904.255012 211.596488 C -927.749377 220.349665 -951.472585 228.893071 -975.055944 237.480973 L -976.791324 247.327503 C -953.207964 238.7396 -929.484757 230.202551 -905.996748 221.443017 Z M -904.255012 211.596488 "
       transform="matrix(0.614509,0,0,0.614509,916.82912,176.63611)"
       id="path44" />
    <path
       style="fill-rule:nonzero;fill:#008000;fill-opacity:1;stroke-width:2.5;stroke-linecap:round;stroke-linejoin:round;stroke:rgb(0%, 0%, 0%);stroke-opacity:1;stroke-miterlimit:10"
       d="M -1246.010313 -109.906365 C -1227.96364 -112.989365 -1203.217004 -109.544033 -1197.553183 -104.852788 L -1209.853399 -83.017521 C -1216.483438 -87.130306 -1238.700107 -90.3023 -1260.287463 -86.036954 Z M -1246.010313 -109.906365 "
       transform="matrix(0.614509,0,0,0.614509,916.82912,176.63611)"
       id="path45" />
    <path
       style="fill-rule:nonzero;fill:#008000;fill-opacity:1;stroke-width:2.5;stroke-linecap:round;stroke-linejoin:round;stroke:rgb(0%, 0%, 0%);stroke-opacity:1;stroke-miterlimit:10"
       d="M -1197.553183 -104.852788 C -1203.598406 -93.728562 -1211.734983 -86.284865 -1225.789648 -79.610329 C -1232.979076 -76.196781 -1239.17686 -73.196418 -1248.305082 -69.751086 C -1255.157605 -66.655373 -1256.683213 -65.35225 -1260.700648 -63.890208 L -1263.402246 -62.968487 C -1267.775656 -61.411095 -1257.592222 -62.739646 -1248.705554 -63.55966 C -1239.297637 -64.424171 -1228.275118 -65.689155 -1225.338322 -66.776151 C -1220.094044 -69.280691 -1212.853762 -78.014797 -1209.853399 -83.017521 Z M -1197.553183 -104.852788 "
       transform="matrix(0.614509,0,0,0.614509,916.82912,176.63611)"
       id="path46" />
    <path
       style="fill:#000000;fill-opacity:1;fill-rule:nonzero;stroke:#000000;stroke-width:0.636427;stroke-linecap:round;stroke-linejoin:round;stroke-miterlimit:10;stroke-opacity:1"
       d="m 614.42736,473.12452 c 5.09744,-7.09595 9.44035,-8.86184 12.98225,-7.82011 2.18259,0.89003 3.50145,4.32067 4.09615,5.93487 0.34589,0.93856 0.48142,1.44831 0.65942,2.00255 0.15981,0.27915 0.0181,0.38028 -0.42275,0.30139 -2.17248,-0.46928 -5.71437,-1.77196 -8.6818,-3.16768 -2.43747,-1.14692 -5.53435,-3.20005 -7.68053,-5.15002 -0.77878,-0.66751 -1.90345,2.19068 -3.6754,5.19654 -1.87918,3.03014 -4.41777,5.31589 -6.4264,6.44866 l -1.65869,9.4019 c 2.01066,-1.13276 4.54724,-3.42053 6.10073,-6.51337 1.63036,-3.09486 2.48196,-6.07847 2.7429,-5.72045 2.06325,2.19878 5.97329,4.48251 8.9387,5.73866 3.44682,1.56564 9.29673,3.04227 11.80296,3.16769 1.14893,0.0566 3.32547,-5.34623 4.23774,-8.38447 0.68774,-2.75706 0.31959,-7.31641 -1.54743,-11.69575 -1.45843,-3.41852 -4.10424,-6.61654 -6.82893,-6.96243 -3.6572,-0.46726 -7.33867,1.87917 -13.25736,10.46793 z m 0,0"
       id="path47" />
    <path
       style="fill:#000000;fill-opacity:1;fill-rule:nonzero;stroke:#000000;stroke-width:0.636427;stroke-linecap:round;stroke-linejoin:round;stroke-miterlimit:10;stroke-opacity:1"
       d="m 605.2783,476.87072 c -3.69563,2.08549 -9.29672,1.88118 -12.7294,-0.61089 l -1.65868,9.39989 c 3.43468,2.4941 9.03376,2.69638 12.72939,0.6129 z m 0,0"
       id="path48" />
    <path
       style="fill:#000000;fill-opacity:1;fill-rule:nonzero;stroke:#000000;stroke-width:0.636427;stroke-linecap:round;stroke-linejoin:round;stroke-miterlimit:10;stroke-opacity:1"
       d="m 592.5489,476.25983 c -0.65741,-0.47738 -1.93985,-1.66273 -3.05642,-3.70978 -1.00736,-2.17046 1.30873,-5.18644 -0.45514,-4.22764 -1.98435,1.20357 -4.98415,12.02547 -13.74888,11.96681 -4.49867,0.0808 -5.78519,-4.09412 -5.26331,-6.7824 0.65945,-3.37806 1.8448,-4.11638 0.93251,-4.31461 -4.16086,0.22858 -6.71969,13.78732 -17.37775,13.41715 -3.24254,-0.0263 -7.88483,-1.35122 -9.25628,-5.86608 -0.80305,-4.48655 2.73886,-7.99811 -0.4349,-6.41224 -0.82732,0.41266 -1.96009,1.4827 -2.68221,2.1482 -2.4415,2.30193 -4.58971,5.16418 -6.94423,6.657 l -1.6587,9.39988 c 2.19069,-1.52316 4.34091,-4.38337 5.75686,-6.20186 0.83339,-0.96892 1.55147,-1.6607 2.07335,-1.71533 1.2764,-0.0243 0.49558,1.84883 1.88929,5.52222 1.7133,4.5189 6.14726,5.94698 9.60014,5.87012 9.04389,-0.20632 12.92967,-8.44917 13.9087,-9.97437 0.7201,-1.12465 0.83339,1.34922 1.25413,2.57502 1.15096,3.61067 3.94443,5.15001 6.54574,5.07921 5.68402,-0.15575 9.12681,-3.79272 11.67957,-9.02163 1.35729,-2.78133 1.57777,-0.45309 2.52241,1.28043 1.11658,2.04707 2.39902,3.23444 3.05644,3.70979 z m 0,0"
       id="path49" />
    <path
       style="fill:#000000;fill-opacity:1;fill-rule:nonzero;stroke:#000000;stroke-width:0.636427;stroke-linecap:round;stroke-linejoin:round;stroke-miterlimit:10;stroke-opacity:1"
       d="m 534.26229,479.13624 c -5.88631,3.73203 -14.72993,5.01449 -21.22107,2.47386 l -1.65666,9.40191 c 6.49112,2.5386 15.49658,1.50496 21.21903,-2.47589 z m 0,0"
       id="path50" />
    <path
       style="fill:#000000;fill-opacity:1;fill-rule:nonzero;stroke:#000000;stroke-width:0.636427;stroke-linecap:round;stroke-linejoin:round;stroke-miterlimit:10;stroke-opacity:1"
       d="m 513.04122,481.6101 c -2.85212,-1.11456 -6.44056,-2.80763 -8.56853,-5.21272 -2.132,-2.36666 -3.32545,-3.85342 -3.36389,-5.6375 -0.0668,-3.12521 7.0393,-8.25703 8.54224,-8.15184 1.41595,0.10119 2.50218,2.95933 3.26275,4.55936 0.72011,1.51508 1.42809,4.33483 1.36335,4.95987 -0.0768,0.74237 -1.92771,2.26957 -3.8008,3.72193 -3.34368,2.35453 -7.02515,4.40766 -9.3109,5.46557 l -1.65666,9.39991 c 2.28574,-1.05793 5.96722,-3.11107 9.30886,-5.46559 4.18111,-2.81167 7.69469,-8.20644 8.76271,-12.85076 0.3722,-1.62025 0.56639,-3.61675 0.62505,-5.61324 -0.10518,-6.79453 -3.69564,-14.46697 -7.76347,-13.69022 -4.83041,1.04578 -12.64444,11.04037 -12.40371,19.34189 0.33375,7.16471 1.88118,10.57311 4.77579,13.36051 2.56895,2.47388 5.71842,4.09817 8.57055,5.21474 z m 0,0"
       id="path51" />
    <path
       style="fill:#000000;fill-opacity:1;fill-rule:nonzero;stroke:#000000;stroke-width:0.795533;stroke-linecap:round;stroke-linejoin:round;stroke-miterlimit:10;stroke-opacity:1"
       d="m 499.28829,431.77065 c 2.37677,1.19344 6.17557,3.59247 8.6009,5.00843 l -4.59578,8.23071 c -2.42532,-1.41596 -5.6638,-3.39221 -8.04058,-4.58769 z m 0,0"
       id="path52" />
    <path
       style="fill:#000000;fill-opacity:1;fill-rule:nonzero;stroke:#000000;stroke-width:0.795533;stroke-linecap:round;stroke-linejoin:round;stroke-miterlimit:10;stroke-opacity:1"
       d="m 512.71354,429.25025 c 2.37474,1.19546 5.84787,3.40638 8.27117,4.82233 l -4.12649,8.65146 c -2.42532,-1.41596 -6.41223,-3.95455 -8.789,-5.15002 z m 0,0"
       id="path53" />
    <path
       style="fill:#000000;fill-opacity:1;fill-rule:nonzero;stroke:#000000;stroke-width:0.636427;stroke-linecap:round;stroke-linejoin:round;stroke-miterlimit:10;stroke-opacity:1"
       d="m 501.16544,481.31477 c -11.0687,5.11968 -25.37183,5.09743 -37.54899,5.79934 l -1.65668,9.40191 c 12.17517,-0.7019 26.48032,-0.67966 37.54901,-5.80134 z m 0,0"
       id="path54" />
    <path
       style="fill:#000000;fill-opacity:1;fill-rule:nonzero;stroke:#000000;stroke-width:0.636427;stroke-linecap:round;stroke-linejoin:round;stroke-miterlimit:10;stroke-opacity:1"
       d="m 463.61645,487.11411 c -3.1859,0.18407 -26.48031,0.22453 -28.00752,0.20632 l -1.65868,9.40191 c 1.5272,0.0182 24.82161,-0.0222 28.00952,-0.20632 z m 0,0"
       id="path55" />
    <path
       style="fill:#000000;fill-opacity:1;fill-rule:nonzero;stroke:#000000;stroke-width:0.636427;stroke-linecap:round;stroke-linejoin:round;stroke-miterlimit:10;stroke-opacity:1"
       d="m 442.00903,474.96119 c 2.81369,-6.96849 2.94315,-12.79614 1.45843,-30.87379 -2.04504,-24.92277 -3.2668,-34.35299 -4.41373,-46.03055 -0.59267,-1.43416 -1.24806,-2.56085 -1.66476,-4.3591 l -3.65314,8.81935 c 0.61089,1.331 1.07207,2.92494 1.66475,4.3591 1.25211,11.42471 2.41926,21.04914 4.33686,46.0002 2.05515,21.39301 0.70595,26.07981 1.81445,23.33893 z m 0,0"
       id="path56" />
    <path
       style="fill:#000000;fill-opacity:1;fill-rule:nonzero;stroke:#000000;stroke-width:0.636427;stroke-linecap:round;stroke-linejoin:round;stroke-miterlimit:10;stroke-opacity:1"
       d="m 437.38897,393.69775 c 3.69564,9.70331 8.35817,23.77178 6.50733,21.58111 l -0.83947,-0.97094 c -3.42458,-4.07592 -1.04376,-1.4119 -9.321,-11.79082 z m 0,0"
       id="path57" />
    <path
       style="fill:#000000;fill-opacity:1;fill-rule:nonzero;stroke:#000000;stroke-width:0.636427;stroke-linecap:round;stroke-linejoin:round;stroke-miterlimit:10;stroke-opacity:1"
       d="m 429.12185,496.13574 c 13.18655,-19.56845 25.20191,-32.34032 37.53484,-31.24599 8.17611,1.00531 13.98353,5.79932 16.29962,7.92123 1.27841,0.78687 0.0485,1.15905 -2.49409,2.58512 -15.3914,8.32377 -37.00083,12.22775 -58.27853,12.75974 -12.47048,0.62707 -20.94797,-0.4349 -17.67713,1.36943 l 1.57777,0.90823 c 5.8054,3.26883 12.48262,6.09264 14.44271,7.12223 21.27567,-0.52997 42.8851,-4.43394 58.27851,-12.75975 4.60792,-2.66197 6.85118,-4.77579 8.46738,-12.47452 0.89609,-7.2618 -7.45194,-15.01717 -17.35146,-16.40278 -13.50615,-1.4382 -25.57612,12.97214 -38.76267,32.5426 z m 0,0"
       id="path58" />
    <path
       style="fill:#008000;fill-opacity:1;fill-rule:nonzero;stroke:#000000;stroke-width:0.636427;stroke-linecap:round;stroke-linejoin:round;stroke-miterlimit:10;stroke-opacity:1"
       d="m 640.65685,421.87518 c -7.2072,2.73075 -24.05296,9.1794 -32.50012,12.39968 -2.89057,1.10647 -3.97073,1.56767 -4.13256,2.12797 l -1.95806,5.38264 c 0.63717,-0.68977 1.23997,-1.02151 4.13055,-2.12798 8.3986,-3.22836 25.29292,-9.66891 32.50212,-12.39969 z m 0,0"
       id="path59" />
    <path
       style="fill:#008000;fill-opacity:1;fill-rule:nonzero;stroke:#000000;stroke-width:0.636427;stroke-linecap:round;stroke-linejoin:round;stroke-miterlimit:10;stroke-opacity:1"
       d="m 563.84151,432.04574 c 2.73278,-0.66549 6.04409,0.59065 5.55457,5.15609 -0.008,0.0668 -0.0162,0.13149 -0.0284,0.1942 l -0.47333,3.17375 c 0.0324,-0.23869 0.0465,-0.47941 0.0404,-0.72214 -0.32164,-3.89994 -4.4117,-4.42586 -6.99884,-3.7725 z m 0,0"
       id="path60" />
    <path
       style="fill:#008000;fill-opacity:1;fill-rule:nonzero;stroke:#000000;stroke-width:0.636427;stroke-linecap:round;stroke-linejoin:round;stroke-miterlimit:10;stroke-opacity:1"
       d="m 569.36776,437.39603 c -0.50772,3.11508 -3.51156,3.6228 -5.26329,3.05642 -1.54137,-0.49962 -2.25743,-1.67285 -2.10573,-3.13329 0.36816,-2.45567 2.02481,-5.01045 2.25542,-6.18569 0.40252,-2.03491 -0.0465,-2.38892 -0.18004,-2.94922 l -0.12743,-0.65538 c -0.18812,-0.88598 -0.0668,1.70924 -1.28246,4.30651 -0.5421,1.15905 -2.59926,4.86075 -2.5487,8.04866 0.0284,1.69308 0.50165,3.71384 2.1219,4.61196 2.94316,1.63442 6.24637,-0.93251 6.657,-3.92622 z m 0,0"
       id="path61" />
    <path
       style="fill:#008000;fill-opacity:1;fill-rule:nonzero;stroke:#000000;stroke-width:0.636427;stroke-linecap:round;stroke-linejoin:round;stroke-miterlimit:10;stroke-opacity:1"
       d="m 525.92841,401.24679 c -7.20922,2.73279 -24.05298,9.1794 -32.50216,12.40171 -2.89055,1.10646 -3.9687,1.56766 -4.13255,2.12797 l -1.95806,5.38264 c 0.63718,-0.68977 1.24199,-1.0215 4.13053,-2.12797 8.40064,-3.22838 25.29496,-9.67095 32.50215,-12.40171 z m 0,0"
       id="path62" />
  </g>
</svg>
